<svg xmlns="http://www.w3.org/2000/svg" xmlns:xlink="http://www.w3.org/1999/xlink" width="474" height="474" viewBox="0 0 474 474">
  <defs>
    <clipPath id="clip-path">
      <circle id="Elipse_3" data-name="Elipse 3" cx="237" cy="237" r="237"/>
    </clipPath>
    <clipPath id="clip-path-2">
      <rect id="Retângulo_9" data-name="Retângulo 9" width="710" height="474" transform="translate(-0.08)" fill="#db2727"/>
    </clipPath>
  </defs>
  <g id="Grupo_1295" data-name="Grupo 1295" transform="translate(-6823 -2989)">
    <g id="Grupo_1288" data-name="Grupo 1288" transform="translate(6748 2989.345)">
      <g id="Grupo_1289" data-name="Grupo 1289" transform="translate(75 -0.345)" clip-path="url(#clip-path)">
        <g id="_x32_52_2_" transform="translate(-118.92 0)">
          <g id="Grupo_1288-2" data-name="Grupo 1288" transform="translate(0)" clip-path="url(#clip-path-2)">
            <rect id="_x32_54_2_" width="425" height="474" transform="translate(284.92)" fill="#db2727"/>
          </g>
        </g>
        <rect id="_x32_51_2_" width="285" height="474" transform="translate(-119)" fill="#2db24a"/>
        <path id="_x32_50_2_" d="M312.066,245.776C276.283,244.672,112.5,142.526,111.4,126.133L120.385,111c16.236,23.645,183.642,122.953,200.193,119.485l-8.512,15.29" transform="translate(-54.022 64.434)" fill="#f8d12e" fill-rule="evenodd"/>
        <path id="_x32_49_2_" d="M119.093,110.78c-3.153,8.67,42.718,37.044,98.047,70.619s102.934,54.383,106.4,51.388a28.665,28.665,0,0,0,1.576-3c-.63.946-2.207,1.261-4.729.631-14.975-4.256-53.91-22.226-102.146-51.388-48.236-29.32-90.166-56.275-96.786-67.624a7.328,7.328,0,0,1-.788-3.31h-.158l-1.419,2.364ZM313.453,247.92c-.631,1.1-1.734,1.1-3.941.946-13.4-1.419-53.91-21.123-101.83-49.969-55.8-33.418-101.988-63.841-96.944-71.88l1.419-2.364.315.158c-4.571,13.556,90.954,68.1,96.629,71.565C264.272,230.58,310.931,250.6,315.03,245.4l-1.576,2.522" transform="translate(-54.621 62.763)" fill="#f8d12e" fill-rule="evenodd"/>
        <path id="_x32_48_2_" d="M119.085,110.78c-3.153,8.67,42.718,37.044,98.047,70.619s102.934,54.383,106.4,51.388a28.641,28.641,0,0,0,1.576-3c-.63.946-2.207,1.261-4.729.631-14.975-4.256-53.91-22.226-102.146-51.388C170,149.715,128.07,122.76,121.449,111.41a7.327,7.327,0,0,1-.788-3.31H120.5l-1.419,2.364ZM313.445,247.92c-.631,1.1-1.734,1.1-3.941.946-13.4-1.419-53.91-21.123-101.83-49.969-55.8-33.418-101.83-63.841-96.944-71.88l1.419-2.364.315.158c-4.571,13.556,90.954,68.1,96.629,71.565C264.264,230.58,310.923,250.6,315.022,245.4l-1.576,2.522Z" transform="translate(-54.613 62.763)" fill="none" stroke="#000" stroke-linecap="round" stroke-linejoin="round" stroke-width="0.43"/>
        <path id="_x32_47_2_" d="M218.368,136.236c35.783-.315,79.92-4.887,105.3-14.975l-5.517-8.827c-14.975,8.355-59.427,13.714-100.1,14.66-48.078-.473-82.126-4.887-99.151-16.394l-5.2,9.458c31.369,13.241,63.526,15.921,104.668,16.078" transform="translate(-52.696 64.261)" fill="#f8d12e" fill-rule="evenodd"/>
        <path id="_x32_46_2_" d="M325.6,121.938c-.946,1.419-17.5,7.093-41.773,11.35a429.091,429.091,0,0,1-65.1,4.729,454.533,454.533,0,0,1-62.265-3.941c-25.536-3.941-38.778-9.616-43.664-11.507l1.261-2.522c14.029,5.675,27.27,8.985,42.876,11.35a475.141,475.141,0,0,0,61.792,3.941,445.184,445.184,0,0,0,64.629-4.729c25.064-4.1,38.62-9.3,40.511-11.665Zm-4.729-8.985c-2.68,2.207-16.236,6.936-40.039,10.719a439.616,439.616,0,0,1-61.792,4.256,424.73,424.73,0,0,1-59.743-3.783c-24.118-3.153-37.044-8.827-41.615-10.561l1.419-2.364c3.626,1.734,16.079,6.778,40.512,10.246,14.975,2.207,34.994,3.783,59.427,3.626a405,405,0,0,0,61.319-4.414c23.96-3.31,36.728-9.458,38.62-10.877l1.892,3.153" transform="translate(-53.215 63.743)" fill="#f8d12e" fill-rule="evenodd"/>
        <path id="_x32_45_2_" d="M325.6,121.938c-.946,1.419-17.5,7.093-41.773,11.35a429.091,429.091,0,0,1-65.1,4.729,454.533,454.533,0,0,1-62.265-3.941c-25.536-3.941-38.778-9.616-43.664-11.507l1.261-2.522c14.029,5.675,27.27,8.985,42.876,11.35a475.141,475.141,0,0,0,61.792,3.941,445.184,445.184,0,0,0,64.629-4.729c25.064-4.1,38.62-9.3,40.669-11.665l1.576,2.995Zm-4.729-8.985c-2.68,2.207-16.236,6.936-40.039,10.719a439.616,439.616,0,0,1-61.792,4.256,424.73,424.73,0,0,1-59.743-3.783c-24.118-3.153-37.044-8.827-41.615-10.561l1.419-2.364c3.626,1.734,15.921,6.778,40.512,10.246,14.975,2.207,34.994,3.783,59.427,3.626a405,405,0,0,0,61.319-4.414c23.96-3.31,36.728-9.458,38.62-10.877Z" transform="translate(-53.215 63.743)" fill="none" stroke="#000" stroke-linecap="round" stroke-linejoin="round" stroke-width="0.43"/>
        <path id="_x32_44_2_" d="M105.758,158.234c21.911,11.822,70.777,17.812,116.963,18.128,42.088,0,96.944-6.463,117.436-17.34l-.631-11.822c-6.463,10.088-65.1,19.7-117.279,19.231-52.176-.315-100.569-8.512-116.648-18.916l.158,10.719" transform="translate(-57.365 85.297)" fill="#f8d12e" fill-rule="evenodd"/>
        <path id="_x32_43_2_" d="M341.721,157v2.837c-3.153,3.626-22.384,9.3-46.659,13.241-18.443,2.837-42.4,4.887-72.353,4.887-28.531,0-51.073-2.049-68.728-4.729-27.743-4.1-45.556-11.192-49.181-13.241v-3.31c10.719,7.093,39.723,12.3,49.5,13.872,17.5,2.68,40.039,4.729,68.412,4.729,29.792,0,53.753-2.049,72.038-4.887,17.34-2.522,42.088-9.143,46.974-13.4Zm0-10.088v2.837c-3.153,3.626-22.384,9.3-46.659,13.241-18.443,2.837-42.4,4.887-72.353,4.887-28.531,0-51.073-2.049-68.728-4.729-27.743-4.1-45.556-11.192-49.181-13.241V146.6c10.719,7.093,39.723,12.3,49.5,13.872,17.5,2.68,40.039,4.729,68.412,4.729,29.792,0,53.753-2.049,72.038-4.887,17.34-2.522,42.088-8.985,46.974-13.4" transform="translate(-57.826 84.951)" fill="#ff0" fill-rule="evenodd"/>
        <path id="_x32_42_2_" d="M341.721,157v2.837c-3.153,3.626-22.384,9.3-46.659,13.241-18.443,2.837-42.4,4.887-72.353,4.887-28.531,0-51.073-2.049-68.728-4.729-27.743-4.1-45.556-11.192-49.181-13.241v-3.31c10.719,7.093,39.723,12.3,49.5,13.872,17.5,2.68,40.039,4.729,68.412,4.729,29.792,0,53.753-2.049,72.038-4.887,17.34-2.522,42.088-9.143,46.974-13.4Zm0-10.088v2.837c-3.153,3.626-22.384,9.3-46.659,13.241-18.443,2.837-42.4,4.887-72.353,4.887-28.531,0-51.073-2.049-68.728-4.729-27.743-4.1-45.556-11.192-49.181-13.241V146.6c10.719,7.093,39.723,12.3,49.5,13.872,17.5,2.68,40.039,4.729,68.412,4.729,29.792,0,53.753-2.049,72.038-4.887,17.34-2.522,42.088-8.985,46.974-13.4Z" transform="translate(-57.826 84.951)" fill="#f8d12e" stroke="#000" stroke-linecap="round" stroke-linejoin="round" stroke-width="0.43"/>
        <path id="_x32_41_2_" d="M217.492,201.194c-50.6-.315-93.949-13.714-103.092-16.079l6.621,10.4c16.236,6.778,58.482,16.867,96.786,15.763,38.462-1.1,72.038-4.1,95.683-15.606l6.778-10.877c-15.763,7.882-70.777,16.394-102.776,16.394" transform="translate(-52.293 106.967)" fill="#f8d12e" fill-rule="evenodd"/>
        <path id="_x32_40_2_" d="M317.019,193.873c-.946,1.576-2.049,3-2.995,4.571a278.706,278.706,0,0,1-36.1,9.3c-15.133,3.153-38.62,5.359-59.427,5.517-44.768-.631-81.5-9.458-98.678-16.867l-1.419-2.364.158-.315,2.364.946c30.738,11.034,65.1,15.29,97.732,16.079a341.925,341.925,0,0,0,58.324-5.359c25.694-5.2,36.1-8.985,39.408-10.877l.631-.631Zm5.832-9.773h0a31.719,31.719,0,0,1-2.207,3.941c-5.99,2.207-22.069,6.936-45.713,10.088-15.606,2.049-25.221,4.1-56.117,4.729-58.009-1.419-95.525-12.768-104.353-15.606l-1.261-2.522c33.576,8.827,67.94,14.817,105.771,15.448,28.216-.631,40.354-2.68,55.8-4.729,27.586-4.256,41.3-8.827,45.556-10.088a.55.55,0,0,1-.158-.315l2.68-.946" transform="translate(-52.984 106.563)" fill="#f8d12e" fill-rule="evenodd"/>
        <path id="_x32_39_2_" d="M317.019,193.873c-.946,1.576-2.049,3-2.995,4.571a278.706,278.706,0,0,1-36.1,9.3c-15.133,3.153-38.62,5.359-59.427,5.517-44.768-.631-81.5-9.458-98.678-16.867l-1.419-2.364.158-.315,2.364.946c30.738,11.034,65.1,15.29,97.732,16.079a341.925,341.925,0,0,0,58.324-5.359c25.694-5.2,36.1-8.985,39.408-10.877Zm5.832-9.773h0a31.719,31.719,0,0,1-2.207,3.941c-5.99,2.207-22.069,6.936-45.713,10.088-15.606,2.049-25.221,4.1-56.117,4.729-58.009-1.419-95.525-12.768-104.353-15.606l-1.261-2.522c33.576,8.827,67.94,14.817,105.771,15.448,28.216-.631,40.354-2.68,55.8-4.729,27.586-4.256,41.3-8.827,45.556-10.088a.55.55,0,0,1-.158-.315l2.68-.946Z" transform="translate(-52.984 106.563)" fill="none" stroke="#000" stroke-linecap="round" stroke-linejoin="round" stroke-width="0.412"/>
        <path id="_x32_38_2_" d="M327.919,189.911c.158,33.26-16.867,63.053-30.581,76.294a110.5,110.5,0,0,1-75.191,31.211c-33.576.63-65.1-21.28-73.614-30.9-16.551-18.758-30.108-42.561-30.581-74.718,2.049-36.255,16.236-61.634,36.886-78.974s48.236-25.852,71.092-25.221c26.482.631,57.378,13.714,78.658,39.408,14.187,16.867,20.177,35.152,23.33,62.9ZM222.463,76.1c64.472,0,117.436,52.492,117.436,116.648,0,64.314-52.964,116.648-117.436,116.648S105.5,256.9,105.5,192.748C105.5,128.434,158.149,76.1,222.463,76.1" transform="translate(-57.422 44.321)" fill="#f8d12e" fill-rule="evenodd"/>
        <path id="_x32_37_2_" d="M222.721,75.8c64.472,0,117.121,52.649,117.121,117.121S287.193,310.042,222.721,310.042,105.6,257.392,105.6,192.921C105.758,128.449,158.249,75.8,222.721,75.8Zm0,2.522c62.738,0,114.441,51.546,114.441,114.441S285.459,307.2,222.721,307.2,108.28,255.659,108.28,192.763s51.7-114.441,114.441-114.441Zm.158,7.251c58.8,0,107.19,48.235,107.19,107.19s-48.393,107.19-107.19,107.19-107.19-48.235-107.19-107.19,48.393-107.19,107.19-107.19Zm0,2.522c57.378,0,104.668,47.132,104.668,104.668s-47.29,104.668-104.668,104.668S118.211,250.3,118.211,192.763,165.5,88.1,222.878,88.1Z" transform="translate(-57.365 44.148)" fill="none" stroke="#000" stroke-linecap="round" stroke-linejoin="round" stroke-width="0.43"/>
        <path id="_x32_36_2_" d="M185.931,74.6v1.419H178.68V74.758H176V312.625h2.68v-1.1h7.409v1.1h2.522V74.6Z" transform="translate(-16.791 43.456)" fill="#f8d12e" fill-rule="evenodd"/>
        <path id="_x32_35_2_" d="M177.8,75.5h7.093M177.8,310.688h7.093" transform="translate(-15.754 43.975)" fill="none" stroke="#000" stroke-linecap="round" stroke-linejoin="round" stroke-width="0.43"/>
        <path id="_x32_34_2_" d="M185.931,74.7h2.522V312.567h-2.522ZM176,74.7h2.522V312.567H176V74.7Z" transform="translate(-16.791 43.514)" fill="none" stroke="#000" stroke-linecap="round" stroke-linejoin="round" stroke-width="0.43"/>
        <path id="_x32_33_2_" d="M105.4,154.969c14.66-13.556,68.885-22.226,116.963-22.068s104.983,10.088,117.278,21.753l.158,10.088c-10.4-9.773-54.541-21.438-117.436-21.438-62.738-.158-108.451,11.822-116.963,21.753V154.969" transform="translate(-57.48 77.055)" fill="#f8d12e" fill-rule="evenodd"/>
        <path id="_x32_32_2_" d="M105.4,147.2v8.67m234.557-8.355v8.67" transform="translate(-57.48 85.297)" fill="none" stroke="#000" stroke-linecap="round" stroke-linejoin="round" stroke-width="0.429"/>
        <path id="_x32_31_2_" d="M223.4,142.288c27.586,0,54.541,2.68,75.664,6.778,21.911,4.414,37.359,9.931,42.718,16.078v3c-6.305-7.724-27.113-13.241-43.191-16.551-21.123-4.1-47.763-6.778-75.191-6.778-29,0-55.959,2.837-76.767,6.936-16.709,3.31-38.935,9.931-41.773,16.394v-3.153c1.576-4.414,18.128-11.192,41.3-15.921,20.965-4.1,48.078-6.778,77.24-6.778Zm0-10.088c27.586,0,54.541,2.68,75.664,6.778,21.911,4.414,37.359,9.931,42.718,16.078v3c-6.305-7.724-27.113-13.241-43.191-16.551-21.123-4.1-47.763-6.778-75.191-6.778-29,0-55.959,2.837-76.767,6.936-16.078,2.995-39.25,9.931-41.93,16.394V154.9c1.576-4.414,18.443-11.35,41.3-15.921a433.349,433.349,0,0,1,77.4-6.778" transform="translate(-57.883 76.652)" fill="#f8d12e" fill-rule="evenodd"/>
        <path id="_x32_30_2_" d="M223.4,142.288c27.586,0,54.541,2.68,75.664,6.778,21.911,4.414,37.359,9.931,42.718,16.078v3c-6.305-7.724-27.113-13.241-43.191-16.551-21.123-4.1-47.763-6.778-75.191-6.778a424.481,424.481,0,0,0-76.767,6.778c-16.709,3.31-38.935,9.931-41.773,16.394V164.83c1.576-4.571,18.128-11.192,41.3-15.921,20.965-3.941,48.078-6.621,77.24-6.621Zm0-10.088c27.586,0,54.541,2.68,75.664,6.778,21.911,4.414,37.359,9.931,42.718,16.078v3c-6.305-7.724-27.113-13.241-43.191-16.551-21.123-4.1-47.763-6.778-75.191-6.778-29,0-55.959,2.837-76.767,6.936-16.078,2.995-39.25,9.931-41.93,16.394V154.9c1.576-4.414,18.443-11.35,41.3-15.921a433.349,433.349,0,0,1,77.4-6.778Z" transform="translate(-57.883 76.652)" fill="none" stroke="#000" stroke-linecap="round" stroke-linejoin="round" stroke-width="0.43"/>
        <path id="_x32_29_2_" d="M217.695,99.7c43.507-.158,81.5,6.148,98.993,14.975l6.305,11.034c-15.133-8.2-56.117-16.551-105.3-15.29-40.039.315-82.757,4.414-104.195,15.921l7.566-12.611c17.655-9.3,59.112-13.872,96.629-14.029" transform="translate(-52.812 57.921)" fill="#f8d12e" fill-rule="evenodd"/>
        <line id="_x32_28_2_" x2="4.256" y2="6.936" stroke-width="0.431" transform="translate(264.98 174.488)" stroke="#000" stroke-linecap="round" stroke-linejoin="round" fill="none"/>
        <path id="_x32_27_2_" d="M218.556,109.188c24.906,0,48.866,1.261,67.94,4.729,17.812,3.31,34.679,8.355,37.2,10.877l1.892,3.31c-5.832-3.783-20.65-8.2-39.408-11.665-18.916-3.626-42.876-4.729-67.624-4.729-28.059-.158-49.812,1.419-68.57,4.571-19.7,3.626-33.576,8.985-36.886,11.507l1.892-3.468c6.621-3.31,17.024-7.409,34.521-10.561,19.231-3.468,41.3-4.414,69.043-4.571Zm0-10.088c23.8,0,47.29,1.261,65.575,4.571,14.5,2.837,28.689,7.251,33.891,11.034l2.68,4.414c-4.729-5.2-22.226-10.088-37.832-12.926-18.128-3.153-40.669-4.414-64.472-4.571-24.906,0-48.078,1.576-65.89,4.887-17.024,3.31-28.059,7.093-32.788,10.088l2.364-3.626c6.463-3.31,16.867-6.463,29.95-8.985,18.128-3.31,41.3-4.887,66.521-4.887" transform="translate(-53.042 57.576)" fill="#f8d12e" fill-rule="evenodd"/>
        <path id="_x32_26_2_" d="M218.556,109.188c24.906,0,48.866,1.261,67.94,4.729,17.812,3.31,34.679,8.355,37.2,10.877l1.892,3.31c-5.832-3.783-20.65-8.2-39.408-11.665-18.916-3.626-42.876-4.729-67.624-4.729-28.059-.158-49.812,1.419-68.57,4.571-19.7,3.626-33.576,8.985-36.886,11.507l1.892-3.468c6.621-3.31,17.024-7.409,34.521-10.561,19.231-3.468,41.3-4.414,69.043-4.571Zm0-10.088c23.8,0,47.29,1.261,65.575,4.571,14.5,2.837,28.689,7.251,33.891,11.034l2.68,4.414c-4.729-5.2-22.226-10.088-37.832-12.926-18.128-3.153-40.669-4.414-64.472-4.571-24.906,0-48.078,1.576-65.89,4.887-17.024,3.31-28.059,7.093-32.788,10.088l2.364-3.626c6.463-3.31,16.867-6.463,29.95-8.985,18.128-3.31,41.3-4.887,66.521-4.887Z" transform="translate(-53.042 57.576)" fill="none" stroke="#000" stroke-linecap="round" stroke-linejoin="round" stroke-width="0.43"/>
        <path id="_x32_25_2_" d="M276.261,186.107c-21.6-3.941-43.191-4.571-58.166-4.414-72.669.788-96,14.975-98.835,19.231L113.9,192.1c18.443-13.4,58.009-20.965,104.668-20.177,24.275.473,45.24,2.049,62.738,5.359l-5.044,8.827" transform="translate(-52.581 99.512)" fill="#f8d12e" fill-rule="evenodd"/>
        <line id="_x32_24_2_" x2="3.626" y2="5.99" stroke-width="0.43" transform="translate(62.265 292.87)" stroke="#000" stroke-linecap="round" stroke-linejoin="round" fill="none"/>
        <path id="_x32_23_2_" d="M218.083,180.988c20.177.315,40.039,1.1,59.112,4.729l-1.419,2.522c-17.812-3.31-36.728-4.571-57.693-4.414-26.8-.158-53.91,2.364-77.555,9.143-7.409,2.049-19.7,6.936-20.965,10.877l-1.419-2.207c.473-2.364,7.882-7.251,21.753-11.034,27.113-8.039,52.334-9.3,78.186-9.616Zm.946-10.088c20.965.315,42.561,1.419,63.526,5.517l-1.419,2.522c-18.916-3.783-37.044-5.044-61.95-5.359-26.955,0-55.329,1.892-81.338,9.458-8.355,2.364-22.857,7.724-23.33,11.822L113.1,192.5c.315-3.783,12.768-8.67,24.118-11.98,26.009-7.566,54.7-9.616,81.811-9.616" transform="translate(-53.042 98.956)" fill="#ff0" fill-rule="evenodd"/>
        <path id="_x32_22_2_" d="M218.083,180.988c20.177.315,40.039,1.1,59.112,4.729l-1.419,2.522c-17.812-3.31-36.728-4.571-57.693-4.414-26.8-.158-53.91,2.364-77.555,8.985-7.409,2.049-19.7,6.778-20.965,10.877l-1.419-2.207c.473-2.365,7.882-7.251,21.753-11.034,27.113-7.882,52.334-9.143,78.186-9.458Zm.946-10.088c20.965.315,42.561,1.419,63.526,5.517l-1.419,2.522c-18.916-3.783-37.044-5.044-61.95-5.359-26.955,0-55.329,1.892-81.338,9.458-8.355,2.364-22.857,7.724-23.33,11.822L113.1,192.5c.315-3.783,12.768-8.67,24.118-11.98,26.009-7.566,54.7-9.616,81.811-9.616Z" transform="translate(-53.042 98.956)" fill="#f8d12e" stroke="#000" stroke-linecap="round" stroke-linejoin="round" stroke-width="0.412"/>
        <path id="_x32_21_2_" d="M120.87,108.4c35.94-.473,202.085,101.515,202.558,120.274l-10.246,15.763C308.61,222.684,139.943,123.376,112.2,125.267l8.67-16.867" transform="translate(-53.561 62.935)" fill="#f8d12e" fill-rule="evenodd"/>
        <path id="_x32_20_2_" d="M322.524,229.589l-8.67,13.556M120.439,109,112.4,123.975" transform="translate(-53.446 63.282)" fill="none" stroke="#000" stroke-linecap="round" stroke-linejoin="round" stroke-width="0.43"/>
        <path id="_x32_19_2_" d="M111.961,125.3c6.621-4.571,55.8,17.34,107.032,48.236,51.23,31.054,100.1,66.048,95.683,72.669l-1.419,2.364-.631.473c.158-.158.946-.946,0-3.468-2.207-7.251-36.886-34.837-94.422-69.673-56.117-33.418-102.934-53.6-107.505-47.92l1.261-2.68ZM325.238,230.442c4.256-8.355-41.3-42.561-97.732-75.979-57.693-32.63-99.308-52.019-106.875-46.186l-1.734,3c0,.158,0-.158.473-.473,1.419-1.261,3.626-1.1,4.729-1.1,13.083.158,50.442,17.34,102.934,47.447,23.014,13.4,97.1,60.846,96.786,74.245,0,1.1.158,1.419-.315,1.892l1.734-2.837" transform="translate(-54.425 62.271)" fill="#f8d12e" fill-rule="evenodd"/>
        <path id="_x32_18_2_" d="M111.961,125.3c6.621-4.571,55.8,17.34,107.032,48.236,51.23,31.054,100.1,66.048,95.683,72.669l-1.419,2.207-.631.473c.158-.158.946-.946,0-3.468-2.207-7.251-36.886-34.837-94.422-69.673-56.117-33.418-102.934-53.6-107.505-47.92l1.261-2.522ZM325.238,230.442c4.256-8.355-41.3-42.561-97.732-75.979-57.693-32.63-99.308-52.019-106.875-46.186L118.9,111.43c0,.158,0-.158.473-.473,1.419-1.261,3.626-1.1,4.729-1.1,13.083.158,50.442,17.34,102.934,47.447,23.014,13.4,97.1,60.846,96.786,74.245,0,1.1.158,1.419-.315,1.892Z" transform="translate(-54.425 62.271)" fill="none" stroke="#000" stroke-linecap="round" stroke-linejoin="round" stroke-width="0.43"/>
        <path id="_x32_17_2_" d="M135.4,192.591a70.782,70.782,0,0,0,70.146,70.146,70.234,70.234,0,0,0,70.3-69.989h0V98.958L135.4,98.8v93.791" transform="translate(-40.19 57.403)" fill="#fff" fill-rule="evenodd"/>
        <path id="_x32_16_2_" d="M135.4,192.591a70.782,70.782,0,0,0,70.146,70.146,70.234,70.234,0,0,0,70.3-69.989V98.958L135.4,98.8Z" transform="translate(-40.19 57.403)" fill="none" stroke="#000" stroke-width="0.503"/>
        <path id="_x32_15_2_" d="M137.1,191.5h0a66.218,66.218,0,0,0,19.862,47.29,67.359,67.359,0,0,0,95.21,0,66.729,66.729,0,0,0,19.7-47.29V100.7H137.258l-.158,90.8M244.763,127.97v64c0,1.576-.158,3.468-.315,5.044a40.414,40.414,0,0,1-39.881,35.152c-11.034,0-20.807-4.729-28.216-11.98a39.689,39.689,0,0,1-11.822-28.374V127.97h80.235" transform="translate(-39.21 58.498)" fill="#db2727" fill-rule="evenodd"/>
        <path id="_x32_14_2_" d="M137.1,191.5h0a66.218,66.218,0,0,0,19.862,47.29,67.359,67.359,0,0,0,95.21,0,66.729,66.729,0,0,0,19.7-47.29V100.7H137.258l-.158,90.8M244.763,127.97v64c0,1.576-.158,3.468-.315,5.044a39.656,39.656,0,0,1-11.507,23.33,40.169,40.169,0,0,1-28.374,11.822c-11.034,0-20.807-4.729-28.216-11.98a39.689,39.689,0,0,1-11.822-28.374V127.97Z" transform="translate(-39.21 58.498)" fill="none" stroke="#000" stroke-width="0.38"/>
        <path id="_x32_13_2_" d="M174.5,156.468h0a9.4,9.4,0,0,0,2.68,6.778,8.459,8.459,0,0,0,6.305,2.837,8.724,8.724,0,0,0,6.305-2.837,10.1,10.1,0,0,0,2.68-6.778V143.7H174.815l-.315,12.768" transform="translate(-17.656 83.28)" fill="#039"/>
        <path id="_x32_12_2_" d="M174.4,175.768h0a9.4,9.4,0,0,0,2.68,6.778,8.459,8.459,0,0,0,6.305,2.837,8.724,8.724,0,0,0,6.305-2.837,10.1,10.1,0,0,0,2.68-6.778V163H174.715l-.315,12.768" transform="translate(-17.714 94.403)" fill="#039"/>
        <path id="_x32_11_2_" d="M158.9,156.468h0a9.4,9.4,0,0,0,2.68,6.778,8.459,8.459,0,0,0,6.305,2.837,8.724,8.724,0,0,0,6.305-2.837,10.1,10.1,0,0,0,2.68-6.778V143.7H159.215l-.315,12.768" transform="translate(-26.646 83.28)" fill="#039"/>
        <path id="_x32_10_2_" d="M190,156.468h0a9.4,9.4,0,0,0,2.68,6.778,8.425,8.425,0,0,0,12.611,0,10.1,10.1,0,0,0,2.68-6.778V143.7H190.315L190,156.468" transform="translate(-8.723 83.28)" fill="#039"/>
        <path id="_x32_09_2_" d="M174.5,136.968h0a9.4,9.4,0,0,0,2.68,6.778,8.425,8.425,0,0,0,12.611,0,10.1,10.1,0,0,0,2.68-6.778V124.2H174.815l-.315,12.768" transform="translate(-17.656 72.042)" fill="#039"/>
        <path id="_x32_08_2_" d="M152.929,106.2l.158,4.1H148.2l.158-4.1h4.571" transform="translate(-32.813 61.668)" fill="#f8d12e" fill-rule="evenodd"/>
        <path id="_x32_07_2_" d="M142.6,118.739c.158-6.463,4.729-8.039,4.887-8.039,0,0,5.044,1.734,5.044,8.2l-9.931-.158" transform="translate(-36.041 64.261)" fill="#f8d12e" fill-rule="evenodd"/>
        <path id="_x32_06_2_" d="M140.388,110.8l-.788,7.566h4.887c0-6.148,4.729-7.251,4.887-7.251s4.729,1.419,4.887,7.251h4.887L158.2,110.8H140.388" transform="translate(-37.77 64.319)" fill="#f8d12e" fill-rule="evenodd"/>
        <path id="_x32_05_2_" d="M140.388,110.8l-.788,7.566h4.887c0-6.148,4.729-7.251,4.887-7.251s4.729,1.419,4.887,7.251h4.887L158.2,110.8Z" transform="translate(-37.77 64.319)" fill="none" stroke="#000" stroke-width="0.375"/>
        <path id="_x32_04_2_" d="M139.688,115.5h20.019a.962.962,0,0,1,0,1.892H139.688a.962.962,0,0,1,0-1.892" transform="translate(-38.173 67.028)" fill="#f8d12e" fill-rule="evenodd"/>
        <path id="_x32_03_2_" d="M139.688,115.5h20.019a.962.962,0,0,1,0,1.892H139.688a.962.962,0,0,1,0-1.892Z" transform="translate(-38.173 67.028)" fill="none" stroke="#000" stroke-width="0.375"/>
        <path id="_x32_02_2_" d="M144,117.344c0-3.941,2.68-5.044,2.68-5.044s2.837,1.1,2.837,5.044H144" transform="translate(-35.234 65.183)" fill="#f8d12e" fill-rule="evenodd"/>
        <path id="_x32_01_2_" d="M144,117.344c0-3.941,2.68-5.044,2.68-5.044s2.837,1.1,2.837,5.044H144" transform="translate(-35.234 65.183)" fill="none" stroke="#000" stroke-width="0.373"/>
        <path id="_x32_00_2_" d="M139.988,108.8h19.231a.788.788,0,1,1,0,1.576H139.988a.788.788,0,0,1,0-1.576" transform="translate(-38 63.166)" fill="#f8d12e" fill-rule="evenodd"/>
        <path id="_x31_99_2_" d="M139.988,108.8h19.231a.788.788,0,1,1,0,1.576H139.988a.788.788,0,0,1,0-1.576Z" transform="translate(-38 63.166)" fill="none" stroke="#000" stroke-width="0.374"/>
        <path id="_x31_98_2_" d="M140.131,109.9h18.443a.808.808,0,0,1,0,1.576H140.131a.808.808,0,0,1,0-1.576" transform="translate(-37.827 63.8)" fill="#f8d12e" fill-rule="evenodd"/>
        <path id="_x31_97_2_" d="M140.131,109.9h18.443a.808.808,0,0,1,0,1.576H140.131a.808.808,0,0,1,0-1.576Z" transform="translate(-37.827 63.8)" fill="none" stroke="#000" stroke-width="0.374"/>
        <path id="_x31_96_2_" d="M143.7,101.9h1.419V103h1.1v-1.1h1.419V103h1.1v-1.1h1.419v2.365a.678.678,0,0,1-.631.631h-5.044a.678.678,0,0,1-.631-.631V101.9" transform="translate(-35.407 59.19)" fill="#f8d12e" fill-rule="evenodd"/>
        <path id="_x31_95_2_" d="M143.7,101.9h1.419V103h1.1v-1.1h1.419V103h1.1v-1.1h1.419v2.365a.678.678,0,0,1-.631.631h-5.2a.678.678,0,0,1-.631-.631V101.9Z" transform="translate(-35.407 59.19)" fill="none" stroke="#000" stroke-width="0.375"/>
        <path id="_x31_94_2_" d="M148.829,103.9l.315,7.724H144.1l.315-7.724h4.414" transform="translate(-35.176 60.342)" fill="#f8d12e" fill-rule="evenodd"/>
        <path id="_x31_93_2_" d="M148.829,103.9l.315,7.724H144.1l.315-7.724h4.414" transform="translate(-35.176 60.342)" fill="none" stroke="#000" stroke-width="0.374"/>
        <path id="_x31_92_2_" d="M147.7,104.3h1.419v1.1h1.1v-1.1h1.419v1.1h1.1v-1.1h1.419v2.364a.678.678,0,0,1-.631.631h-5.044a.678.678,0,0,1-.631-.631V104.3" transform="translate(-33.101 60.573)" fill="#f8d12e" fill-rule="evenodd"/>
        <path id="_x31_91_2_" d="M152.929,106.2l.158,4.1H148.2l.158-4.1Z" transform="translate(-32.813 61.668)" fill="none" stroke="#000" stroke-width="0.376"/>
        <path id="_x31_90_2_" d="M147.7,104.3h1.419v1.1h1.1v-1.1h1.419v1.1h1.1v-1.1h1.419v2.364a.678.678,0,0,1-.631.631h-5.044a.678.678,0,0,1-.631-.631V104.3Z" transform="translate(-33.101 60.573)" fill="none" stroke="#000" stroke-width="0.375"/>
        <path id="_x31_89_2_" d="M139.7,104.3h1.419v1.1h1.1v-1.1h1.419v1.1h1.1v-1.1h1.419v2.364a.678.678,0,0,1-.631.631h-5.044a.678.678,0,0,1-.631-.631L139.7,104.3" transform="translate(-37.712 60.573)" fill="#f8d12e" fill-rule="evenodd"/>
        <path id="_x31_88_2_" d="M139.7,104.3h1.419v1.1h1.1v-1.1h1.419v1.1h1.1v-1.1h1.419v2.364a.678.678,0,0,1-.631.631h-5.044a.678.678,0,0,1-.631-.631L139.7,104.3Z" transform="translate(-37.712 60.573)" fill="none" stroke="#000" stroke-width="0.375"/>
        <path id="_x31_87_2_" d="M144.929,106.2l.158,4.1H140.2l.158-4.1h4.571" transform="translate(-37.424 61.668)" fill="#f8d12e" fill-rule="evenodd"/>
        <path id="_x31_86_2_" d="M144.929,106.2l.158,4.1H140.2l.158-4.1Z" transform="translate(-37.424 61.668)" fill="none" stroke="#000" stroke-width="0.376"/>
        <path id="_x31_85_2_" d="M145.4,105.716c0-.788,1.1-.788.946,0v1.892H145.4v-1.892" transform="translate(-34.427 61.048)" fill-rule="evenodd"/>
        <path id="_x31_84_2_" d="M149.4,107.316c0-.788.946-.788.946,0v1.419H149.4v-1.419" transform="translate(-32.122 61.97)" fill-rule="evenodd"/>
        <path id="_x31_83_2_" d="M141.4,107.316c0-.788.946-.788.946,0v1.419H141.4v-1.419" transform="translate(-36.732 61.97)" fill-rule="evenodd"/>
        <path id="_x31_82_2_" d="M187.129,106.2l.158,4.1H182.4l.158-4.1h4.571" transform="translate(-13.103 61.668)" fill="#f8d12e" fill-rule="evenodd"/>
        <path id="_x31_81_2_" d="M176.9,118.739c.158-6.463,4.729-8.039,4.887-8.039,0,0,5.044,1.734,5.044,8.2l-9.931-.158" transform="translate(-16.273 64.261)" fill="#f8d12e" fill-rule="evenodd"/>
        <path id="_x31_80_2_" d="M174.688,110.8l-.788,7.566h4.887c0-6.148,4.729-7.251,4.887-7.251s4.729,1.419,4.887,7.251h4.887L192.5,110.8H174.688" transform="translate(-18.002 64.319)" fill="#f8d12e" fill-rule="evenodd"/>
        <path id="_x31_79_2_" d="M174.688,110.8l-.788,7.566h4.887c0-6.148,4.729-7.251,4.887-7.251s4.729,1.419,4.887,7.251h4.887L192.5,110.8Z" transform="translate(-18.002 64.319)" fill="none" stroke="#000" stroke-width="0.375"/>
        <path id="_x31_78_2_" d="M173.988,115.5h20.019a.962.962,0,0,1,0,1.892H173.988a.962.962,0,0,1,0-1.892" transform="translate(-18.405 67.028)" fill="#f8d12e" fill-rule="evenodd"/>
        <path id="_x31_77_2_" d="M173.988,115.5h20.019a.962.962,0,0,1,0,1.892H173.988a.962.962,0,0,1,0-1.892Z" transform="translate(-18.405 67.028)" fill="none" stroke="#000" stroke-width="0.375"/>
        <path id="_x31_76_2_" d="M178.3,117.344c0-3.941,2.68-5.044,2.68-5.044s2.837,1.1,2.837,5.044H178.3" transform="translate(-15.466 65.183)" fill="#f8d12e" fill-rule="evenodd"/>
        <path id="_x31_75_2_" d="M178.3,117.344c0-3.941,2.68-5.044,2.68-5.044s2.837,1.1,2.837,5.044H178.3" transform="translate(-15.466 65.183)" fill="none" stroke="#000" stroke-width="0.373"/>
        <path id="_x31_74_2_" d="M174.188,108.8h19.231a.788.788,0,1,1,0,1.576H174.188a.745.745,0,0,1-.788-.788c.158-.473.473-.788.788-.788" transform="translate(-18.29 63.166)" fill="#f8d12e" fill-rule="evenodd"/>
        <path id="_x31_73_2_" d="M174.188,108.8h19.231a.788.788,0,1,1,0,1.576H174.188a.745.745,0,0,1-.788-.788c.158-.473.473-.788.788-.788Z" transform="translate(-18.29 63.166)" fill="none" stroke="#000" stroke-width="0.374"/>
        <path id="_x31_72_2_" d="M174.431,109.9h18.443a.808.808,0,0,1,0,1.576H174.431a.808.808,0,0,1,0-1.576" transform="translate(-18.059 63.8)" fill="#f8d12e" fill-rule="evenodd"/>
        <path id="_x31_71_2_" d="M174.431,109.9h18.443a.808.808,0,0,1,0,1.576H174.431a.808.808,0,0,1,0-1.576Z" transform="translate(-18.059 63.8)" fill="none" stroke="#000" stroke-width="0.374"/>
        <path id="_x31_70_2_" d="M178,101.9h1.419V103h1.1v-1.1h1.419V103h1.1v-1.1h1.419v2.365a.678.678,0,0,1-.631.631h-5.044a.678.678,0,0,1-.631-.631V101.9" transform="translate(-15.639 59.19)" fill="#f8d12e" fill-rule="evenodd"/>
        <path id="_x31_69_2_" d="M178,101.9h1.419V103h1.1v-1.1h1.419V103h1.1v-1.1h1.419v2.365a.678.678,0,0,1-.631.631h-5.2a.678.678,0,0,1-.631-.631V101.9Z" transform="translate(-15.639 59.19)" fill="none" stroke="#000" stroke-width="0.375"/>
        <path id="_x31_68_2_" d="M183.129,103.9l.315,7.724H178.4l.315-7.724h4.414" transform="translate(-15.408 60.342)" fill="#f8d12e" fill-rule="evenodd"/>
        <path id="_x31_67_2_" d="M183.129,103.9l.315,7.724H178.4l.315-7.724h4.414" transform="translate(-15.408 60.342)" fill="none" stroke="#000" stroke-width="0.374"/>
        <path id="_x31_66_2_" d="M182,104.3h1.419v1.1h1.1v-1.1h1.419v1.1h1.1v-1.1h1.419v2.364a.678.678,0,0,1-.631.631h-5.044a.678.678,0,0,1-.631-.631V104.3" transform="translate(-13.333 60.573)" fill="#f8d12e" fill-rule="evenodd"/>
        <path id="_x31_65_2_" d="M187.129,106.2l.158,4.1H182.4l.158-4.1Z" transform="translate(-13.103 61.668)" fill="none" stroke="#000" stroke-width="0.376"/>
        <path id="_x31_64_2_" d="M182,104.3h1.419v1.1h1.1v-1.1h1.419v1.1h1.1v-1.1h1.419v2.364a.678.678,0,0,1-.631.631h-5.044a.678.678,0,0,1-.631-.631Z" transform="translate(-13.333 60.573)" fill="none" stroke="#000" stroke-width="0.375"/>
        <path id="_x31_63_2_" d="M174,104.3h1.419v1.1h1.1v-1.1h1.419v1.1h1.1v-1.1h1.419v2.364a.678.678,0,0,1-.631.631h-5.044a.678.678,0,0,1-.631-.631L174,104.3" transform="translate(-17.944 60.573)" fill="#f8d12e" fill-rule="evenodd"/>
        <path id="_x31_62_2_" d="M174,104.3h1.419v1.1h1.1v-1.1h1.419v1.1h1.1v-1.1h1.419v2.364a.678.678,0,0,1-.631.631h-5.044a.678.678,0,0,1-.631-.631L174,104.3Z" transform="translate(-17.944 60.573)" fill="none" stroke="#000" stroke-width="0.375"/>
        <path id="_x31_61_2_" d="M179.229,106.2l.158,4.1H174.5l.158-4.1h4.571" transform="translate(-17.656 61.668)" fill="#f8d12e" fill-rule="evenodd"/>
        <path id="_x31_60_2_" d="M179.229,106.2l.158,4.1H174.5l.158-4.1Z" transform="translate(-17.656 61.668)" fill="none" stroke="#000" stroke-width="0.376"/>
        <path id="_x31_59_2_" d="M179.7,105.716c0-.788,1.1-.788.946,0v1.892H179.7v-1.892" transform="translate(-14.659 61.048)" fill-rule="evenodd"/>
        <path id="_x31_58_2_" d="M183.7,107.316c0-.788.946-.788.946,0v1.419H183.7v-1.419" transform="translate(-12.354 61.97)" fill-rule="evenodd"/>
        <path id="_x31_57_2_" d="M175.7,107.316c0-.788.946-.788.946,0v1.419H175.7v-1.419" transform="translate(-16.964 61.97)" fill-rule="evenodd"/>
        <path id="_x31_56_2_" d="M220.971,106.2l.158,4.1H216.4v-4.1h4.571" transform="translate(6.492 61.668)" fill="#f8d12e" fill-rule="evenodd"/>
        <path id="_x31_55_2_" d="M210.8,118.739c.158-6.463,4.729-8.039,4.887-8.039,0,0,5.044,1.734,5.044,8.2l-9.931-.158" transform="translate(3.265 64.261)" fill="#f8d12e" fill-rule="evenodd"/>
        <path id="_x31_54_2_" d="M208.588,110.8l-.788,7.566h4.887c0-6.148,4.729-7.251,4.887-7.251s4.729,1.419,4.887,7.251h4.887L226.4,110.8H208.588" transform="translate(1.536 64.319)" fill="#f8d12e" fill-rule="evenodd"/>
        <path id="_x31_53_2_" d="M208.588,110.8l-.788,7.566h4.887c0-6.148,4.729-7.251,4.887-7.251s4.729,1.419,4.887,7.251h4.887L226.4,110.8Z" transform="translate(1.536 64.319)" fill="none" stroke="#000" stroke-width="0.375"/>
        <path id="_x31_52_2_" d="M207.888,115.5h20.019a.962.962,0,0,1,0,1.892H207.888a.962.962,0,0,1,0-1.892" transform="translate(1.132 67.028)" fill="#f8d12e" fill-rule="evenodd"/>
        <path id="_x31_51_2_" d="M207.888,115.5h20.019a.962.962,0,0,1,0,1.892H207.888a.962.962,0,0,1,0-1.892Z" transform="translate(1.132 67.028)" fill="none" stroke="#000" stroke-width="0.375"/>
        <path id="_x31_50_2_" d="M212.2,117.344c0-3.941,2.68-5.044,2.68-5.044s2.837,1.1,2.837,5.044H212.2" transform="translate(4.072 65.183)" fill="#f8d12e" fill-rule="evenodd"/>
        <path id="_x31_49_2_" d="M212.2,117.344c0-3.941,2.68-5.044,2.68-5.044s2.837,1.1,2.837,5.044H212.2" transform="translate(4.072 65.183)" fill="none" stroke="#000" stroke-width="0.373"/>
        <path id="_x31_48_2_" d="M208.088,108.8h19.231a.788.788,0,1,1,0,1.576H208.088a.745.745,0,0,1-.788-.788c.158-.473.473-.788.788-.788" transform="translate(1.248 63.166)" fill="#f8d12e" fill-rule="evenodd"/>
        <path id="_x31_47_2_" d="M208.088,108.8h19.231a.788.788,0,1,1,0,1.576H208.088a.745.745,0,0,1-.788-.788c.158-.473.473-.788.788-.788Z" transform="translate(1.248 63.166)" fill="none" stroke="#000" stroke-width="0.374"/>
        <path id="_x31_46_2_" d="M208.331,109.9h18.443a.808.808,0,0,1,0,1.576H208.331a.808.808,0,0,1,0-1.576" transform="translate(1.478 63.8)" fill="#f8d12e" fill-rule="evenodd"/>
        <path id="_x31_45_2_" d="M208.331,109.9h18.443a.808.808,0,0,1,0,1.576H208.331a.808.808,0,0,1,0-1.576Z" transform="translate(1.478 63.8)" fill="none" stroke="#000" stroke-width="0.374"/>
        <path id="_x31_44_2_" d="M211.9,101.9h1.419V103h1.1v-1.1h1.419V103h1.1v-1.1h1.419v2.365a.678.678,0,0,1-.631.631h-5.044a.678.678,0,0,1-.631-.631V101.9" transform="translate(3.899 59.19)" fill="#f8d12e" fill-rule="evenodd"/>
        <path id="_x31_43_2_" d="M211.9,101.9h1.419V103h1.1v-1.1h1.419V103h1.1v-1.1h1.419v2.365a.678.678,0,0,1-.631.631h-5.2a.678.678,0,0,1-.631-.631V101.9Z" transform="translate(3.899 59.19)" fill="none" stroke="#000" stroke-width="0.375"/>
        <path id="_x31_42_2_" d="M217.029,103.9l.315,7.724H212.3l.315-7.724h4.414" transform="translate(4.129 60.342)" fill="#f8d12e" fill-rule="evenodd"/>
        <path id="_x31_41_2_" d="M217.029,103.9l.315,7.724H212.3l.315-7.724h4.414" transform="translate(4.129 60.342)" fill="none" stroke="#000" stroke-width="0.374"/>
        <path id="_x31_40_2_" d="M215.9,104.3h1.419v1.1h1.1v-1.1h1.419v1.1h1.1v-1.1h1.419v2.364a.678.678,0,0,1-.631.631h-5.044a.678.678,0,0,1-.631-.631V104.3" transform="translate(6.204 60.573)" fill="#f8d12e" fill-rule="evenodd"/>
        <path id="_x31_39_2_" d="M220.971,106.2l.158,4.1H216.4v-4.1h4.571Z" transform="translate(6.492 61.668)" fill="none" stroke="#000" stroke-width="0.376"/>
        <path id="_x31_38_2_" d="M215.9,104.3h1.419v1.1h1.1v-1.1h1.419v1.1h1.1v-1.1h1.419v2.364a.678.678,0,0,1-.631.631h-5.044a.678.678,0,0,1-.631-.631V104.3Z" transform="translate(6.204 60.573)" fill="none" stroke="#000" stroke-width="0.375"/>
        <path id="_x31_37_2_" d="M207.9,104.3h1.419v1.1h1.1v-1.1h1.419v1.1h1.1v-1.1h1.419v2.364a.678.678,0,0,1-.631.631h-5.044a.678.678,0,0,1-.631-.631L207.9,104.3" transform="translate(1.593 60.573)" fill="#f8d12e" fill-rule="evenodd"/>
        <path id="_x31_36_2_" d="M207.9,104.3h1.419v1.1h1.1v-1.1h1.419v1.1h1.1v-1.1h1.419v2.364a.678.678,0,0,1-.631.631h-5.044a.678.678,0,0,1-.631-.631L207.9,104.3Z" transform="translate(1.593 60.573)" fill="none" stroke="#000" stroke-width="0.375"/>
        <path id="_x31_35_2_" d="M213.129,106.2l.158,4.1H208.4l.158-4.1h4.571" transform="translate(1.881 61.668)" fill="#f8d12e" fill-rule="evenodd"/>
        <path id="_x31_34_2_" d="M213.129,106.2l.158,4.1H208.4l.158-4.1Z" transform="translate(1.881 61.668)" fill="none" stroke="#000" stroke-width="0.376"/>
        <path id="_x31_33_2_" d="M213.6,105.716c0-.788,1.1-.788.946,0v1.892H213.6v-1.892" transform="translate(4.878 61.048)" fill-rule="evenodd"/>
        <path id="_x31_32_2_" d="M217.6,107.316c0-.788.946-.788.946,0v1.419H217.6v-1.419" transform="translate(7.184 61.97)" fill-rule="evenodd"/>
        <path id="_x31_31_2_" d="M209.6,107.316c0-.788.946-.788.946,0v1.419H209.6v-1.419" transform="translate(2.573 61.97)" fill-rule="evenodd"/>
        <path id="_x31_30_2_" d="M152.929,140.9l.158,4.1H148.2l.158-4.1h4.571" transform="translate(-32.813 81.666)" fill="#f8d12e" fill-rule="evenodd"/>
        <path id="_x31_29_2_" d="M142.6,153.539c.158-6.463,4.729-8.039,4.887-8.039,0,0,5.044,1.734,5.044,8.2l-9.931-.158" transform="translate(-36.041 84.317)" fill="#f8d12e" fill-rule="evenodd"/>
        <path id="_x31_28_2_" d="M140.388,145.5l-.788,7.566h4.887c0-6.148,4.729-7.251,4.887-7.251s4.729,1.419,4.887,7.251h4.887L158.2,145.5H140.388" transform="translate(-37.77 84.317)" fill="#f8d12e" fill-rule="evenodd"/>
        <path id="_x31_27_2_" d="M140.388,145.5l-.788,7.566h4.887c0-6.148,4.729-7.251,4.887-7.251s4.729,1.419,4.887,7.251h4.887L158.2,145.5Z" transform="translate(-37.77 84.317)" fill="none" stroke="#000" stroke-width="0.375"/>
        <path id="_x31_26_2_" d="M139.688,150.3h20.019a.962.962,0,0,1,0,1.892H139.688a.883.883,0,0,1-.788-.946c0-.631.315-.946.788-.946" transform="translate(-38.173 87.084)" fill="#f8d12e" fill-rule="evenodd"/>
        <path id="_x31_25_2_" d="M139.688,150.3h20.019a.962.962,0,0,1,0,1.892H139.688a.883.883,0,0,1-.788-.946c0-.631.315-.946.788-.946Z" transform="translate(-38.173 87.084)" fill="none" stroke="#000" stroke-width="0.375"/>
        <path id="_x31_24_2_" d="M144,152.144c0-3.941,2.68-5.044,2.68-5.044s2.837,1.1,2.837,5.044H144" transform="translate(-35.234 85.239)" fill="#f8d12e" fill-rule="evenodd"/>
        <path id="_x31_23_2_" d="M144,152.144c0-3.941,2.68-5.044,2.68-5.044s2.837,1.1,2.837,5.044H144" transform="translate(-35.234 85.239)" fill="none" stroke="#000" stroke-width="0.373"/>
        <path id="_x31_22_2_" d="M139.988,143.5h19.231a.788.788,0,1,1,0,1.576H139.988a.745.745,0,0,1-.788-.788.844.844,0,0,1,.788-.788" transform="translate(-38 83.165)" fill="#f8d12e" fill-rule="evenodd"/>
        <path id="_x31_21_2_" d="M139.988,143.5h19.231a.788.788,0,1,1,0,1.576H139.988a.745.745,0,0,1-.788-.788.844.844,0,0,1,.788-.788Z" transform="translate(-38 83.165)" fill="none" stroke="#000" stroke-width="0.374"/>
        <path id="_x31_20_2_" d="M140.131,144.6h18.443a.808.808,0,0,1,0,1.576H140.131a.808.808,0,0,1,0-1.576" transform="translate(-37.827 83.799)" fill="#f8d12e" fill-rule="evenodd"/>
        <path id="_x31_19_2_" d="M140.131,144.6h18.443a.808.808,0,0,1,0,1.576H140.131a.808.808,0,0,1,0-1.576Z" transform="translate(-37.827 83.799)" fill="none" stroke="#000" stroke-width="0.374"/>
        <path id="_x31_18_2_" d="M143.7,136.6h1.419v1.1h1.1v-1.1h1.419v1.1h1.1v-1.1h1.419v2.364a.678.678,0,0,1-.631.631h-5.044a.678.678,0,0,1-.631-.631V136.6" transform="translate(-35.407 79.188)" fill="#f8d12e" fill-rule="evenodd"/>
        <path id="_x31_17_2_" d="M143.7,136.7h1.419v1.1h1.1v-1.1h1.419v1.1h1.1v-1.1h1.419v2.364a.678.678,0,0,1-.631.631h-5.2a.678.678,0,0,1-.631-.631V136.7Z" transform="translate(-35.407 79.246)" fill="none" stroke="#000" stroke-width="0.375"/>
        <path id="_x31_16_2_" d="M148.829,138.7l.315,7.566H144.1l.315-7.566h4.414" transform="translate(-35.176 80.398)" fill="#f8d12e" fill-rule="evenodd"/>
        <path id="_x31_15_2_" d="M148.829,138.7l.315,7.566H144.1l.315-7.566h4.414" transform="translate(-35.176 80.398)" fill="none" stroke="#000" stroke-width="0.374"/>
        <path id="_x31_14_2_" d="M147.7,139h1.419v1.1h1.1V139h1.419v1.1h1.1V139h1.419v2.364a.678.678,0,0,1-.631.631h-5.044a.678.678,0,0,1-.631-.631V139" transform="translate(-33.101 80.571)" fill="#f8d12e" fill-rule="evenodd"/>
        <path id="_x31_13_2_" d="M152.929,140.9l.158,4.1H148.2l.158-4.1Z" transform="translate(-32.813 81.666)" fill="none" stroke="#000" stroke-width="0.376"/>
        <path id="_x31_12_2_" d="M147.7,139h1.419v1.1h1.1V139h1.419v1.1h1.1V139h1.419v2.364a.678.678,0,0,1-.631.631h-5.044a.678.678,0,0,1-.631-.631V139Z" transform="translate(-33.101 80.571)" fill="none" stroke="#000" stroke-width="0.375"/>
        <path id="_x31_11_2_" d="M139.7,139h1.419v1.1h1.1V139h1.419v1.1h1.1V139h1.419v2.364a.678.678,0,0,1-.631.631h-5.044a.678.678,0,0,1-.631-.631L139.7,139" transform="translate(-37.712 80.571)" fill="#f8d12e" fill-rule="evenodd"/>
        <path id="_x31_10_2_" d="M139.7,139h1.419v1.1h1.1V139h1.419v1.1h1.1V139h1.419v2.364a.678.678,0,0,1-.631.631h-5.044a.678.678,0,0,1-.631-.631Z" transform="translate(-37.712 80.571)" fill="none" stroke="#000" stroke-width="0.375"/>
        <path id="_x31_09_2_" d="M144.929,140.9l.158,4.1H140.2l.158-4.1h4.571" transform="translate(-37.424 81.666)" fill="#f8d12e" fill-rule="evenodd"/>
        <path id="_x31_08_2_" d="M144.929,140.9l.158,4.1H140.2l.158-4.1Z" transform="translate(-37.424 81.666)" fill="none" stroke="#000" stroke-width="0.376"/>
        <path id="_x31_07_2_" d="M145.4,140.416c0-.788,1.1-.788.946,0v1.892H145.4v-1.892" transform="translate(-34.427 81.047)" fill-rule="evenodd"/>
        <path id="_x31_06_2_" d="M149.4,142.116c0-.788.946-.788.946,0v1.419H149.4v-1.419" transform="translate(-32.122 82.026)" fill-rule="evenodd"/>
        <path id="_x31_05_2_" d="M141.4,142.116c0-.788.946-.788.946,0v1.419H141.4v-1.419" transform="translate(-36.732 82.026)" fill-rule="evenodd"/>
        <path id="_x31_04_2_" d="M214.348,182.81l-2.68,2.995-3.468-3.468,3-2.837,3.153,3.31" transform="translate(1.766 103.912)" fill="#f8d12e" fill-rule="evenodd"/>
        <path id="_x31_03_2_" d="M199.3,183.459c4.729-4.571,9.143-2.364,9.143-2.364s2.365,4.729-2.207,9.3l-6.936-6.936" transform="translate(-3.363 104.524)" fill="#f8d12e" fill-rule="evenodd"/>
        <path id="_x31_02_2_" d="M203.232,177l-5.832,4.729,3.468,3.468c4.414-4.414,8.512-1.734,8.512-1.734s2.365,4.256-1.734,8.512l3.468,3.468,4.729-5.99L203.232,177" transform="translate(-4.458 102.472)" fill="#f8d12e" fill-rule="evenodd"/>
        <path id="_x31_01_2_" d="M203.232,177l-5.832,4.729,3.468,3.468c4.414-4.414,8.512-1.734,8.512-1.734.158,0,2.365,4.256-1.734,8.512l3.468,3.468,4.729-5.99L203.232,177Z" transform="translate(-4.458 102.472)" fill="none" stroke="#000" stroke-width="0.375"/>
        <path id="_x31_00_2_" d="M197.8,179.98l14.187,14.187c.315.315.315.788-.158,1.261a.976.976,0,0,1-1.261.158L196.38,181.4c-.315-.315-.315-.788.158-1.261s.946-.473,1.261-.158" transform="translate(-5.172 104.063)" fill="#f8d12e" fill-rule="evenodd"/>
        <path id="_x39_9_2_" d="M197.8,179.98l14.187,14.187c.315.315.315.788-.158,1.261a.976.976,0,0,1-1.261.158L196.38,181.4c-.315-.315-.315-.788.158-1.261s.946-.473,1.261-.158Z" transform="translate(-5.172 104.063)" fill="none" stroke="#000" stroke-width="0.375"/>
        <path id="_x39_8_2_" d="M200.5,183.782c2.837-2.68,5.517-1.734,5.517-1.576a5.337,5.337,0,0,1-1.576,5.517l-3.941-3.941" transform="translate(-2.671 105.305)" fill="#f8d12e" fill-rule="evenodd"/>
        <path id="_x39_7_2_" d="M200.5,183.782c2.837-2.68,5.517-1.734,5.517-1.576a5.337,5.337,0,0,1-1.576,5.517l-3.941-3.941" transform="translate(-2.671 105.305)" fill="none" stroke="#000" stroke-width="0.373"/>
        <path id="_x39_6_2_" d="M202.69,175.386l13.556,13.556a.78.78,0,1,1-1.1,1.1L201.586,176.49a.78.78,0,0,1,1.1-1.1" transform="translate(-2.182 101.405)" fill="#f8d12e" fill-rule="evenodd"/>
        <path id="_x39_5_2_" d="M202.69,175.386l13.556,13.556a.78.78,0,1,1-1.1,1.1L201.586,176.49a.78.78,0,0,1,1.1-1.1Z" transform="translate(-2.182 101.405)" fill="none" stroke="#000" stroke-width="0.374"/>
        <path id="_x39_4_2_" d="M202.124,176.238l12.926,12.926a.779.779,0,0,1-.158,1.1.971.971,0,0,1-1.1.158L200.863,177.5a.779.779,0,0,1,.158-1.1.971.971,0,0,1,1.1-.158" transform="translate(-2.561 101.973)" fill="#f8d12e" fill-rule="evenodd"/>
        <path id="_x39_3_2_" d="M202.124,176.238l12.926,12.926a.779.779,0,0,1-.158,1.1.971.971,0,0,1-1.1.158L200.863,177.5a.779.779,0,0,1,.158-1.1.971.971,0,0,1,1.1-.158Z" transform="translate(-2.561 101.973)" fill="none" stroke="#000" stroke-width="0.374"/>
        <path id="_x39_2_2_" d="M210.563,173.3l.946.946-.788.788.788.788.788-.788,1.1,1.1-.788.788.788.788.788-.788,1.1,1.1-1.734,1.734c-.315.315-.631.158-.946,0l-3.626-3.626a.591.591,0,0,1,0-.946l1.576-1.892" transform="translate(2.083 100.339)" fill="#f8d12e" fill-rule="evenodd"/>
        <path id="_x39_1_2_" d="M210.563,173.3l.946,1.1-.788.788.788.788.788-.788,1.1,1.1-.788.788.788.788.788-.788,1.1,1.1-1.734,1.734c-.315.315-.631.158-.946,0l-3.626-3.626a.591.591,0,0,1,0-.946l1.576-2.049Z" transform="translate(2.083 100.339)" fill="none" stroke="#000" stroke-width="0.375"/>
        <path id="_x39_0_2_" d="M214.127,178.353l-5.2,5.517-3.626-3.626,5.675-5.044,3.153,3.153" transform="translate(0.095 101.434)" fill="#f8d12e" fill-rule="evenodd"/>
        <path id="_x38_9_2_" d="M214.127,178.353l-5.2,5.517-3.626-3.626,5.675-5.044,3.153,3.153" transform="translate(0.095 101.434)" fill="none" stroke="#000" stroke-width="0.374"/>
        <path id="_x38_8_2_" d="M211.72,177.8l.946.946-.788.788.788.788.788-.788.946,1.1-.788.788.788.788.788-.788,1.1,1.1-1.734,1.734c-.315.315-.631.158-.946,0l-3.626-3.626a.591.591,0,0,1,0-.946l1.734-1.892" transform="translate(2.66 102.933)" fill="#f8d12e" fill-rule="evenodd"/>
        <path id="_x38_7_2_" d="M214.348,182.81l-2.68,2.995-3.468-3.468,3-2.837Z" transform="translate(1.766 103.912)" fill="none" stroke="#000" stroke-width="0.376"/>
        <path id="_x38_6_2_" d="M211.72,177.8l.946.946-.788.788.788.788.788-.788,1.1,1.1-.788.788.788.788.788-.788.946,1.1-1.734,1.734c-.315.315-.631.158-.946,0l-3.626-3.626a.591.591,0,0,1,0-.946Z" transform="translate(2.66 102.933)" fill="none" stroke="#000" stroke-width="0.375"/>
        <path id="_x38_5_2_" d="M206.063,172.2l.946.946-.788.788.788.788.788-.788,1.1,1.1-.788.788.788.788.788-.788,1.1,1.1-1.734,1.734c-.315.315-.631.158-.946,0l-3.626-3.626a.591.591,0,0,1,0-.946l1.576-1.892" transform="translate(-0.51 99.705)" fill="#f8d12e" fill-rule="evenodd"/>
        <path id="_x38_4_2_" d="M206.063,172.2l.946.946-.788.788.788.788.788-.788,1.1,1.1-.788.788.788.788.788-.788,1.1,1.1-1.734,1.734c-.315.315-.631.158-.946,0l-3.626-3.626a.591.591,0,0,1,0-.946Z" transform="translate(-0.51 99.705)" fill="none" stroke="#000" stroke-width="0.375"/>
        <path id="_x38_3_2_" d="M208.748,177.21l-2.837,2.995-3.31-3.468,3-2.837,3.153,3.31" transform="translate(-1.461 100.685)" fill="#f8d12e" fill-rule="evenodd"/>
        <path id="_x38_2_2_" d="M208.748,177.21l-2.837,2.995-3.31-3.468,3-2.837Z" transform="translate(-1.461 100.685)" fill="none" stroke="#000" stroke-width="0.376"/>
        <path id="_x38_1_2_" d="M209.061,177.06a.557.557,0,0,1,.788.788l-1.261,1.261-.788-.788,1.261-1.261" transform="translate(1.536 102.411)" fill-rule="evenodd"/>
        <path id="_x38_0_2_" d="M210.546,181.061c.473-.473,1.261.158.631.631l-.946.946-.631-.631.946-.946" transform="translate(2.573 104.716)" fill-rule="evenodd"/>
        <path id="_x37_9_2_" d="M204.946,175.461c.473-.473,1.261.158.631.631l-.946.946-.631-.631.946-.946" transform="translate(-0.654 101.488)" fill-rule="evenodd"/>
        <path id="_x37_8_2_" d="M221.029,140.9l.158,4.1H216.3l.158-4.1h4.571" transform="translate(6.434 81.666)" fill="#f8d12e" fill-rule="evenodd"/>
        <path id="_x37_7_2_" d="M210.8,153.539c.158-6.463,4.729-8.039,4.887-8.039,0,0,5.044,1.734,5.044,8.2l-9.931-.158" transform="translate(3.265 84.317)" fill="#f8d12e" fill-rule="evenodd"/>
        <path id="_x37_6_2_" d="M208.488,145.5l-.788,7.566h4.887c0-6.148,4.729-7.251,4.887-7.251s4.729,1.419,4.887,7.251h4.887L226.3,145.5H208.488" transform="translate(1.478 84.317)" fill="#f8d12e" fill-rule="evenodd"/>
        <path id="_x37_5_2_" d="M208.488,145.5l-.788,7.566h4.887c0-6.148,4.729-7.251,4.729-7.251.158,0,4.729,1.419,4.887,7.251h4.887l-.946-7.566Z" transform="translate(1.478 84.317)" fill="none" stroke="#000" stroke-width="0.375"/>
        <path id="_x37_4_2_" d="M207.788,150.3h20.019a.962.962,0,0,1,0,1.892H207.788a.962.962,0,0,1,0-1.892" transform="translate(1.075 87.084)" fill="#f8d12e" fill-rule="evenodd"/>
        <path id="_x37_3_2_" d="M207.788,150.3h20.019a.962.962,0,0,1,0,1.892H207.788a.962.962,0,0,1,0-1.892Z" transform="translate(1.075 87.084)" fill="none" stroke="#000" stroke-width="0.375"/>
        <path id="_x37_2_2_" d="M212.1,152.144c0-3.941,2.68-5.044,2.68-5.044s2.837,1.1,2.837,5.044H212.1" transform="translate(4.014 85.239)" fill="#f8d12e" fill-rule="evenodd"/>
        <path id="_x37_1_2_" d="M212.1,152.144c0-3.941,2.68-5.044,2.68-5.044s2.837,1.1,2.837,5.044H212.1" transform="translate(4.014 85.239)" fill="none" stroke="#000" stroke-width="0.373"/>
        <path id="_x37_0_2_" d="M208.088,143.5h19.231a.788.788,0,1,1,0,1.576H208.088a.788.788,0,0,1,0-1.576" transform="translate(1.248 83.165)" fill="#f8d12e" fill-rule="evenodd"/>
        <path id="_x36_9_2_" d="M208.088,143.5h19.231a.788.788,0,1,1,0,1.576H208.088a.745.745,0,0,1-.788-.788.844.844,0,0,1,.788-.788Z" transform="translate(1.248 83.165)" fill="none" stroke="#000" stroke-width="0.374"/>
        <path id="_x36_8_2_" d="M208.346,144.6h18.443a.808.808,0,0,1,0,1.576H208.346a.721.721,0,0,1-.631-.788c-.158-.473.158-.788.631-.788" transform="translate(1.463 83.799)" fill="#f8d12e" fill-rule="evenodd"/>
        <path id="_x36_7_2_" d="M208.346,144.6h18.443a.808.808,0,0,1,0,1.576H208.346a.721.721,0,0,1-.631-.788c-.158-.473.158-.788.631-.788Z" transform="translate(1.463 83.799)" fill="none" stroke="#000" stroke-width="0.374"/>
        <path id="_x36_6_2_" d="M211.9,136.6h1.419v1.1h1.1v-1.1h1.419v1.1h1.1v-1.1h1.419v2.364a.678.678,0,0,1-.631.631h-5.044a.678.678,0,0,1-.631-.631V136.6" transform="translate(3.899 79.188)" fill="#f8d12e" fill-rule="evenodd"/>
        <path id="_x36_5_2_" d="M211.8,136.7h1.419v1.1h1.1v-1.1h1.419v1.1h1.1v-1.1h1.419v2.364a.678.678,0,0,1-.631.631h-5.2a.678.678,0,0,1-.631-.631V136.7Z" transform="translate(3.841 79.246)" fill="none" stroke="#000" stroke-width="0.375"/>
        <path id="_x36_4_2_" d="M217.029,138.7l.315,7.566H212.3l.315-7.566h4.414" transform="translate(4.129 80.398)" fill="#f8d12e" fill-rule="evenodd"/>
        <path id="_x36_3_2_" d="M217.029,138.7l.315,7.566H212.3l.315-7.566h4.414" transform="translate(4.129 80.398)" fill="none" stroke="#000" stroke-width="0.374"/>
        <path id="_x36_2_2_" d="M215.8,139h1.419v1.1h1.1V139h1.419v1.1h1.1V139h1.419v2.364a.678.678,0,0,1-.63.631h-5.044a.678.678,0,0,1-.63-.631V139" transform="translate(6.146 80.571)" fill="#f8d12e" fill-rule="evenodd"/>
        <path id="_x36_1_2_" d="M221.029,140.9l.158,4.1H216.3l.158-4.1Z" transform="translate(6.434 81.666)" fill="none" stroke="#000" stroke-width="0.376"/>
        <path id="_x36_0_2_" d="M215.8,139h1.419v1.1h1.1V139h1.419v1.1h1.1V139h1.419v2.364a.678.678,0,0,1-.63.631h-5.044a.678.678,0,0,1-.63-.631V139Z" transform="translate(6.146 80.571)" fill="none" stroke="#000" stroke-width="0.375"/>
        <path id="_x35_9_2_" d="M207.9,139h1.419v1.1h1.1V139h1.419v1.1h1.1V139h1.419v2.364a.678.678,0,0,1-.631.631h-5.044a.678.678,0,0,1-.631-.631L207.9,139" transform="translate(1.593 80.571)" fill="#f8d12e" fill-rule="evenodd"/>
        <path id="_x35_8_2_" d="M207.9,139h1.419v1.1h1.1V139h1.419v1.1h1.1V139h1.419v2.364a.678.678,0,0,1-.631.631h-5.044a.678.678,0,0,1-.631-.631Z" transform="translate(1.593 80.571)" fill="none" stroke="#000" stroke-width="0.375"/>
        <path id="_x35_7_2_" d="M213.029,140.9l.158,4.1H208.3l.158-4.1h4.571" transform="translate(1.824 81.666)" fill="#f8d12e" fill-rule="evenodd"/>
        <path id="_x35_6_2_" d="M213.029,140.9l.158,4.1H208.3l.158-4.1Z" transform="translate(1.824 81.666)" fill="none" stroke="#000" stroke-width="0.376"/>
        <path id="_x35_5_2_" d="M213.6,140.416c0-.788,1.1-.788.946,0v1.892H213.6v-1.892" transform="translate(4.878 81.047)" fill-rule="evenodd"/>
        <path id="_x35_4_2_" d="M217.5,142.116c0-.788.946-.788.946,0v1.419H217.5v-1.419" transform="translate(7.126 82.026)" fill-rule="evenodd"/>
        <path id="_x35_3_2_" d="M209.6,142.116c0-.788.946-.788.946,0v1.419H209.6v-1.419" transform="translate(2.573 82.026)" fill-rule="evenodd"/>
        <path id="_x35_2_2_" d="M156.61,173.9l3,2.837-3.468,3.31-2.837-3,3.31-3.153" transform="translate(-29.874 100.685)" fill="#f8d12e" fill-rule="evenodd"/>
        <path id="_x35_1_2_" d="M157.259,190.266c-4.571-4.729-2.365-9.143-2.365-9.143s4.729-2.364,9.3,2.207l-6.936,6.936" transform="translate(-29.262 104.496)" fill="#f8d12e" fill-rule="evenodd"/>
        <path id="_x35_0_2_" d="M150.8,189.511l4.729,5.832L159,191.875c-4.414-4.414-1.734-8.512-1.734-8.512,0-.158,4.256-2.364,8.512,1.734l3.468-3.468-5.99-4.729L150.8,189.511" transform="translate(-31.315 102.414)" fill="#f8d12e" fill-rule="evenodd"/>
        <path id="_x34_9_2_" d="M150.8,189.611l4.729,5.832L159,191.975c-4.414-4.414-1.734-8.512-1.734-8.512,0-.158,4.256-2.364,8.512,1.734l3.468-3.468L163.253,177,150.8,189.611Z" transform="translate(-31.315 102.472)" fill="none" stroke="#000" stroke-width="0.375"/>
        <path id="_x34_8_2_" d="M153.78,194.067l14.187-14.187c.315-.315.788-.315,1.261.158a.976.976,0,0,1,.158,1.261L155.2,195.486c-.315.315-.788.315-1.261-.158a.834.834,0,0,1-.158-1.261" transform="translate(-29.724 104.005)" fill="#f8d12e" fill-rule="evenodd"/>
        <path id="_x34_7_2_" d="M153.78,194.067l14.187-14.187c.315-.315.788-.315,1.261.158a.976.976,0,0,1,.158,1.261L155.2,195.486c-.315.315-.788.315-1.261-.158a.834.834,0,0,1-.158-1.261Z" transform="translate(-29.724 104.005)" fill="none" stroke="#000" stroke-width="0.375"/>
        <path id="_x34_6_2_" d="M157.582,187.7c-2.68-2.837-1.734-5.517-1.576-5.517a5.337,5.337,0,0,1,5.517,1.576l-3.941,3.941" transform="translate(-28.481 105.329)" fill="#f8d12e" fill-rule="evenodd"/>
        <path id="_x34_5_2_" d="M157.582,187.7c-2.68-2.837-1.734-5.517-1.576-5.517a5.337,5.337,0,0,1,5.517,1.576l-3.941,3.941" transform="translate(-28.481 105.329)" fill="none" stroke="#000" stroke-width="0.373"/>
        <path id="_x34_4_2_" d="M149.186,188.943l13.556-13.556a.78.78,0,0,1,1.1,1.1L150.29,190.046a.78.78,0,1,1-1.1-1.1" transform="translate(-32.381 101.405)" fill="#f8d12e" fill-rule="evenodd"/>
        <path id="_x34_3_2_" d="M149.186,188.943l13.556-13.556a.78.78,0,0,1,1.1,1.1L150.29,190.046a.78.78,0,1,1-1.1-1.1Z" transform="translate(-32.381 101.405)" fill="none" stroke="#000" stroke-width="0.374"/>
        <path id="_x34_2_2_" d="M150.063,189.189l12.926-12.926a.779.779,0,0,1,1.1.158.971.971,0,0,1,.158,1.1L151.324,190.45a.675.675,0,0,1-1.1-.158.779.779,0,0,1-.158-1.1" transform="translate(-31.839 101.948)" fill="#f8d12e" fill-rule="evenodd"/>
        <path id="_x34_1_2_" d="M150.063,189.189l12.926-12.926a.779.779,0,0,1,1.1.158.971.971,0,0,1,.158,1.1L151.324,190.45a.675.675,0,0,1-1.1-.158.779.779,0,0,1-.158-1.1Z" transform="translate(-31.839 101.948)" fill="none" stroke="#000" stroke-width="0.374"/>
        <path id="_x34_0_2_" d="M147.1,177.771l.946-.946.788.788.788-.788-.788-.788,1.1-.946.788.788.788-.788-.788-.788,1.1-1.1,1.734,1.734c.315.315.158.631,0,.946l-3.626,3.626a.591.591,0,0,1-.946,0l-1.892-1.734" transform="translate(-33.447 100.282)" fill="#f8d12e" fill-rule="evenodd"/>
        <path id="_x33_9_2_" d="M147.1,177.929l1.1-.946.788.788.788-.788-.788-.788,1.1-1.1.788.788.788-.788-.788-.788,1.1-1.1,1.734,1.734c.315.315.158.631,0,.946l-3.626,3.626a.591.591,0,0,1-.946,0l-2.049-1.576Z" transform="translate(-33.447 100.282)" fill="none" stroke="#000" stroke-width="0.375"/>
        <path id="_x33_8_2_" d="M152.053,175.1l5.675,5.2-3.626,3.626-5.2-5.675,3.153-3.153" transform="translate(-32.41 101.377)" fill="#f8d12e" fill-rule="evenodd"/>
        <path id="_x33_7_2_" d="M152.053,175.1l5.675,5.2-3.626,3.626-5.2-5.675,3.153-3.153" transform="translate(-32.41 101.377)" fill="none" stroke="#000" stroke-width="0.374"/>
        <path id="_x33_6_2_" d="M151.6,176.671l.946-.946.788.788.788-.788-.788-.788,1.1-.946.788.788.788-.788-.788-.788,1.1-1.1,1.734,1.734c.315.315.158.631,0,.946l-3.626,3.626a.591.591,0,0,1-.946,0l-1.892-1.734" transform="translate(-30.854 99.648)" fill="#f8d12e" fill-rule="evenodd"/>
        <path id="_x33_5_2_" d="M156.61,173.9l3,2.837-3.468,3.31-2.837-3Z" transform="translate(-29.874 100.685)" fill="none" stroke="#000" stroke-width="0.376"/>
        <path id="_x33_4_2_" d="M151.6,176.671l.946-.946.788.788.788-.788-.788-.788,1.1-.946.788.788.788-.788-.788-.788,1.1-1.1,1.734,1.734c.315.315.158.631,0,.946l-3.626,3.626a.591.591,0,0,1-.946,0l-1.892-1.734Z" transform="translate(-30.854 99.648)" fill="none" stroke="#000" stroke-width="0.375"/>
        <path id="_x33_3_2_" d="M145.9,182.329l.946-.946.788.788.788-.788-.788-.788,1.1-1.1.788.788.788-.788-.788-.788,1.1-1.1,1.734,1.734c.315.315.158.631,0,.946l-3.626,3.626a.591.591,0,0,1-.946,0l-1.892-1.576" transform="translate(-34.139 102.817)" fill="#f8d12e" fill-rule="evenodd"/>
        <path id="_x33_2_2_" d="M145.9,182.329l.946-.946.788.788.788-.788-.788-.788,1.1-1.1.788.788.788-.788-.788-.788,1.1-1.1,1.734,1.734c.315.315.158.631,0,.946l-3.626,3.626a.591.591,0,0,1-.946,0Z" transform="translate(-34.139 102.817)" fill="none" stroke="#000" stroke-width="0.375"/>
        <path id="_x33_1_2_" d="M150.853,179.5l3.153,2.837-3.468,3.468L147.7,182.81l3.153-3.31" transform="translate(-33.101 103.912)" fill="#f8d12e" fill-rule="evenodd"/>
        <path id="_x33_0_2_" d="M150.853,179.5l3.153,2.837-3.468,3.468L147.7,182.81Z" transform="translate(-33.101 103.912)" fill="none" stroke="#000" stroke-width="0.376"/>
        <path id="_x32_9_2_" d="M150.86,177.741a.557.557,0,0,1,.788-.788l1.261,1.261-.788.788-1.261-1.261" transform="translate(-31.375 102.361)" fill-rule="evenodd"/>
        <path id="_x32_8_2_" d="M154.861,176.116c-.473-.473.158-1.261.631-.631l.946.946-.631.631-.946-.946" transform="translate(-29.071 101.464)" fill-rule="evenodd"/>
        <path id="_x32_7_2_" d="M149.261,181.716c-.473-.473.158-1.261.631-.631l.946.946-.631.631-.946-.946" transform="translate(-32.298 104.691)" fill-rule="evenodd"/>
        <path id="_x32_6_2_" d="M183.834,171.2a1.734,1.734,0,1,0,1.734,1.734,1.749,1.749,0,0,0-1.734-1.734" transform="translate(-13.276 99.129)" fill="#fff"/>
        <path id="_x32_5_2_" d="M177.734,171.2a1.734,1.734,0,1,0,1.734,1.734,1.749,1.749,0,0,0-1.734-1.734" transform="translate(-16.791 99.129)" fill="#fff"/>
        <path id="_x32_4_2_" d="M180.734,168a1.734,1.734,0,1,0,1.734,1.734A1.749,1.749,0,0,0,180.734,168" transform="translate(-15.062 97.285)" fill="#fff"/>
        <path id="_x32_3_2_" d="M183.834,165a1.734,1.734,0,1,0,1.734,1.734A1.573,1.573,0,0,0,183.834,165" transform="translate(-13.276 95.556)" fill="#fff"/>
        <path id="_x32_2_2_" d="M199.434,151.8a1.734,1.734,0,1,0,1.734,1.734,1.573,1.573,0,0,0-1.734-1.734" transform="translate(-4.285 87.948)" fill="#fff"/>
        <path id="_x32_1_2_" d="M193.434,151.9a1.734,1.734,0,1,0,1.734,1.734,1.749,1.749,0,0,0-1.734-1.734" transform="translate(-7.743 88.006)" fill="#fff"/>
        <path id="_x32_0_2_" d="M196.334,148.7a1.734,1.734,0,1,0,1.734,1.734,1.749,1.749,0,0,0-1.734-1.734" transform="translate(-6.072 86.162)" fill="#fff"/>
        <path id="_x31_9_2_" d="M199.534,145.7a1.734,1.734,0,1,0,1.734,1.734,1.749,1.749,0,0,0-1.734-1.734" transform="translate(-4.228 84.433)" fill="#fff"/>
        <path id="_x31_8_2_" d="M193.434,145.7a1.734,1.734,0,1,0,1.734,1.734,1.749,1.749,0,0,0-1.734-1.734" transform="translate(-7.743 84.433)" fill="#fff"/>
        <path id="_x31_7_2_" d="M183.934,151.8a1.734,1.734,0,1,0,1.734,1.734,1.749,1.749,0,0,0-1.734-1.734" transform="translate(-13.218 87.948)" fill="#fff"/>
        <path id="_x31_6_2_" d="M177.734,151.8a1.734,1.734,0,1,0,1.734,1.734,1.749,1.749,0,0,0-1.734-1.734" transform="translate(-16.791 87.948)" fill="#fff"/>
        <path id="_x31_5_2_" d="M180.834,148.7a1.734,1.734,0,1,0,1.734,1.734,1.749,1.749,0,0,0-1.734-1.734" transform="translate(-15.005 86.162)" fill="#fff"/>
        <path id="_x31_4_2_" d="M183.934,145.7a1.734,1.734,0,1,0,1.734,1.734,1.749,1.749,0,0,0-1.734-1.734" transform="translate(-13.218 84.433)" fill="#fff"/>
        <path id="_x31_3_2_" d="M177.734,145.7a1.734,1.734,0,1,0,1.734,1.734,1.749,1.749,0,0,0-1.734-1.734" transform="translate(-16.791 84.433)" fill="#fff"/>
        <path id="_x31_2_2_" d="M168.334,151.9a1.734,1.734,0,1,0,1.734,1.734,1.749,1.749,0,0,0-1.734-1.734" transform="translate(-22.209 88.006)" fill="#fff"/>
        <path id="_x31_1_2_" d="M162.234,151.9a1.734,1.734,0,1,0,1.734,1.734,1.749,1.749,0,0,0-1.734-1.734" transform="translate(-25.724 88.006)" fill="#fff"/>
        <path id="_x31_0_2_" d="M165.234,148.7a1.734,1.734,0,1,0,1.734,1.734,1.749,1.749,0,0,0-1.734-1.734" transform="translate(-23.995 86.162)" fill="#fff"/>
        <path id="_x39__2_" d="M168.334,145.7a1.734,1.734,0,1,0,1.734,1.734,1.749,1.749,0,0,0-1.734-1.734" transform="translate(-22.209 84.433)" fill="#fff"/>
        <path id="_x38__2_" d="M177.734,165a1.734,1.734,0,1,0,1.734,1.734A1.749,1.749,0,0,0,177.734,165" transform="translate(-16.791 95.556)" fill="#fff"/>
        <path id="_x37__2_" d="M162.234,145.7a1.734,1.734,0,1,0,1.734,1.734,1.749,1.749,0,0,0-1.734-1.734" transform="translate(-25.724 84.433)" fill="#ff0"/>
        <path id="_x36__2_" d="M177.734,126.2a1.734,1.734,0,1,0,1.734,1.734,1.749,1.749,0,0,0-1.734-1.734" transform="translate(-16.791 73.194)" fill="#fff"/>
        <path id="_x35__2_" d="M183.834,126.2a1.734,1.734,0,1,0,1.734,1.734,1.749,1.749,0,0,0-1.734-1.734" transform="translate(-13.276 73.194)" fill="#fff"/>
        <path id="_x34__2_" d="M180.634,129.2a1.734,1.734,0,1,0,1.734,1.734,1.654,1.654,0,0,0-1.734-1.734" transform="translate(-15.12 74.923)" fill="#fff"/>
        <path id="_x33__2_" d="M183.834,132.3a1.734,1.734,0,1,0,1.734,1.734,1.749,1.749,0,0,0-1.734-1.734" transform="translate(-13.276 76.71)" fill="#fff"/>
        <path id="_x32__1_" d="M177.734,132.3a1.734,1.734,0,1,0,1.734,1.734,1.749,1.749,0,0,0-1.734-1.734" transform="translate(-16.791 76.71)" fill="#fff"/>
        <path id="_x31__1_" d="M162.234,145.7a1.734,1.734,0,1,0,1.734,1.734,1.749,1.749,0,0,0-1.734-1.734" transform="translate(-25.724 84.433)" fill="#fff"/>
      </g>
    </g>
    <path id="Subtração_1" data-name="Subtração 1" d="M1055.138,787.265a555.383,555.383,0,0,0,0-466.53,236.315,236.315,0,0,1,110.343,51.822,238.147,238.147,0,0,1,52.076,61.677,236.753,236.753,0,0,1-23.441,272.636,238.132,238.132,0,0,1-61.79,51.946,235.441,235.441,0,0,1-77.185,28.45Z" transform="translate(6047 2672)" fill="#d02027"/>
  </g>
</svg>
