<svg width="20" height="16" viewBox="0 0 20 16" fill="none" xmlns="http://www.w3.org/2000/svg">
<path d="M5.40625 4.125C7.15625 2.375 10 2.375 11.75 4.125C13.4375 5.78125 13.5 8.46875 11.9688 10.25L11.7812 10.4375C11.5 10.75 11.0312 10.7812 10.7188 10.5312C10.4062 10.25 10.375 9.78125 10.6562 9.46875L10.8125 9.28125C11.875 8.09375 11.8125 6.3125 10.6875 5.1875C9.53125 4 7.625 4 6.4375 5.1875L2.90625 8.71875C1.75 9.90625 1.75 11.7812 2.90625 12.9688C4.03125 14.0625 5.8125 14.125 7 13.0938L7.1875 12.9375C7.5 12.6562 7.96875 12.6875 8.25 13C8.53125 13.3125 8.5 13.7812 8.1875 14.0625L8 14.2188C6.21875 15.7812 3.53125 15.6875 1.84375 14.0312C0.09375 12.2812 0.09375 9.40625 1.84375 7.65625L5.40625 4.125ZM14.5938 11.9062C12.8125 13.6562 9.96875 13.6562 8.21875 11.9062C6.53125 10.2188 6.46875 7.5625 8 5.78125L8.15625 5.59375C8.4375 5.28125 8.90625 5.25 9.21875 5.53125C9.53125 5.8125 9.5625 6.28125 9.28125 6.59375L9.15625 6.75C8.09375 7.9375 8.15625 9.71875 9.28125 10.8438C10.4375 12 12.3438 12 13.5312 10.8438L17.0625 7.3125C18.2188 6.125 18.2188 4.25 17.0625 3.0625C15.9375 1.96875 14.1562 1.90625 12.9688 2.9375L12.7812 3.09375C12.4688 3.375 12 3.34375 11.7188 3.03125C11.4375 2.71875 11.4688 2.25 11.7812 1.96875L11.9688 1.8125C13.75 0.25 16.4375 0.34375 18.125 2C19.875 3.75 19.875 6.59375 18.125 8.375L14.5938 11.9062Z" fill="#555555"/>
</svg>
