<?xml version="1.0" standalone="no"?>
<!DOCTYPE svg PUBLIC "-//W3C//DTD SVG 20010904//EN"
 "http://www.w3.org/TR/2001/REC-SVG-20010904/DTD/svg10.dtd">
<svg version="1.0" xmlns="http://www.w3.org/2000/svg"
 width="200.000000pt" height="205.000000pt" viewBox="0 0 200.000000 205.000000"
 preserveAspectRatio="xMidYMid meet">

<g transform="translate(0.000000,205.000000) scale(0.100000,-0.100000)"
fill="#000000" stroke="none">
<path d="M433 1640 c-12 -5 -26 -18 -32 -29 -7 -13 -11 -172 -11 -474 0 -432
-1 -457 -20 -498 -24 -53 -25 -97 -5 -147 44 -104 163 -151 260 -102 38 19 59
20 501 20 l463 0 20 26 c21 26 21 35 21 590 0 309 -3 570 -6 579 -17 44 -32
45 -616 44 -304 0 -563 -4 -575 -9z m357 -110 l0 -80 -185 0 -185 0 0 68 c0
40 5 73 12 80 8 8 64 12 185 12 l173 0 0 -80z m400 0 l0 -80 -179 0 -180 0 -3
28 c-2 15 -1 51 0 80 l4 52 179 0 179 0 0 -80z m398 -2 l3 -78 -181 0 -180 0
0 80 0 80 178 -2 177 -3 3 -77z m-798 -603 l0 -485 -49 0 -49 0 19 37 c48 95
6 207 -96 254 -51 24 -99 24 -152 -1 l-43 -19 0 349 0 350 185 0 185 0 0 -485z
m410 0 l0 -485 -190 0 -190 0 0 485 0 485 190 0 190 0 0 -485z m400 12 c0
-355 -3 -476 -12 -485 -8 -8 -65 -12 -190 -12 l-178 0 0 485 0 485 190 0 190
0 0 -473z m-972 -244 c51 -38 67 -70 67 -133 0 -90 -54 -149 -142 -157 -124
-10 -210 128 -147 238 41 72 158 100 222 52z"/>
<path d="M477 1544 c-4 -4 -7 -13 -7 -21 0 -11 27 -13 138 -11 114 3 137 6
137 18 0 12 -22 15 -131 18 -71 1 -133 -1 -137 -4z"/>
<path d="M875 1539 c-15 -24 16 -30 141 -27 107 3 129 6 129 18 0 12 -23 15
-132 18 -89 2 -134 -1 -138 -9z"/>
<path d="M1275 1540 c-15 -24 12 -30 141 -30 124 0 135 2 132 18 -3 15 -19 17
-135 20 -82 2 -134 -1 -138 -8z"/>
<path d="M472 1233 l3 -128 133 -3 132 -3 0 131 0 130 -135 0 -136 0 3 -127z
m238 2 l0 -95 -105 0 -105 0 0 95 0 95 105 0 105 0 0 -95z"/>
<path d="M474 1047 c-2 -7 -3 -67 -2 -133 l3 -119 130 0 130 0 0 130 0 130
-128 3 c-99 2 -129 0 -133 -11z m204 -22 l32 -6 0 -97 0 -97 -97 2 c-54 1
-101 2 -105 3 -5 0 -8 42 -8 94 l0 95 28 3 c65 7 119 9 150 3z"/>
<path d="M872 1233 l3 -128 135 0 135 0 0 125 0 125 -138 3 -138 3 3 -128z
m243 2 l0 -100 -107 -3 -108 -3 0 99 c0 54 3 102 7 106 4 4 52 5 107 4 l101
-3 0 -100z"/>
<path d="M874 1047 c-2 -7 -3 -67 -2 -133 l3 -119 129 -3 c97 -2 131 1 138 10
9 15 11 219 2 242 -5 13 -27 16 -135 16 -98 0 -131 -3 -135 -13z m236 -122 l0
-95 -105 0 -105 0 0 95 0 95 105 0 105 0 0 -95z"/>
<path d="M874 737 c-2 -7 -3 -67 -2 -133 l3 -119 129 -3 c97 -2 131 1 138 10
9 15 11 219 2 242 -5 13 -27 16 -135 16 -98 0 -131 -3 -135 -13z m236 -122 l0
-95 -105 0 -105 0 0 95 0 95 105 0 105 0 0 -95z"/>
<path d="M1279 1255 c-1 -58 -1 -112 -1 -120 0 -8 0 -20 1 -25 1 -7 48 -10
134 -8 l132 3 3 128 3 127 -136 0 -135 0 -1 -105z m241 -20 l0 -106 -107 3
-108 3 -3 89 c-2 49 -1 95 2 103 4 10 32 13 111 13 l105 0 0 -105z"/>
<path d="M1279 953 c0 -59 -2 -116 -4 -125 -6 -33 19 -39 146 -36 l124 3 0
130 0 130 -132 3 -133 3 -1 -108z m241 -28 l0 -95 -105 0 -105 0 0 95 0 95
105 0 105 0 0 -95z"/>
<path d="M1280 740 c-1 -5 -1 -62 -1 -125 0 -63 0 -120 1 -125 0 -7 47 -10
133 -8 l132 3 0 130 0 130 -132 3 c-86 2 -133 -1 -133 -8z m235 -125 l0 -100
-102 0 c-57 0 -103 3 -103 8 0 4 0 50 0 102 l0 96 103 -3 102 -3 0 -100z"/>
<path d="M555 580 c-46 -47 -50 -49 -67 -33 -12 11 -22 13 -29 6 -11 -11 25
-63 44 -63 16 0 127 111 127 127 0 25 -26 12 -75 -37z"/>
</g>
</svg>
