<svg width="1920" height="1606" viewBox="0 0 1920 1606" fill="none" xmlns="http://www.w3.org/2000/svg">
<rect opacity="0.75" width="1920" height="1606" fill="#8B8B8B"/>
<rect x="538" y="648" width="927" height="310" rx="5" fill="#F6F4F4"/>
<path d="M608.732 710.48C606.305 710.48 604.159 709.907 602.292 708.76C600.425 707.587 598.972 705.933 597.932 703.8C596.892 701.64 596.372 699.08 596.372 696.12C596.372 693.267 596.892 690.747 597.932 688.56C598.999 686.347 600.492 684.627 602.412 683.4C604.359 682.147 606.625 681.52 609.212 681.52C610.545 681.52 611.759 681.653 612.852 681.92C613.945 682.16 614.972 682.507 615.932 682.96L614.772 686.16C613.945 685.76 613.092 685.44 612.212 685.2C611.359 684.96 610.345 684.84 609.172 684.84C607.465 684.84 605.932 685.28 604.572 686.16C603.239 687.04 602.185 688.307 601.412 689.96C600.639 691.613 600.252 693.613 600.252 695.96C600.252 698.2 600.625 700.16 601.372 701.84C602.145 703.52 603.199 704.827 604.532 705.76C605.892 706.693 607.439 707.16 609.172 707.16C610.479 707.16 611.612 707 612.572 706.68C613.532 706.36 614.465 705.947 615.372 705.44L616.532 708.6C615.545 709.133 614.412 709.587 613.132 709.96C611.879 710.307 610.412 710.48 608.732 710.48ZM628.071 710.48C626.098 710.48 624.324 710.027 622.751 709.12C621.178 708.187 619.938 706.907 619.031 705.28C618.151 703.627 617.711 701.733 617.711 699.6C617.711 697.36 618.164 695.427 619.071 693.8C619.978 692.173 621.218 690.92 622.791 690.04C624.364 689.16 626.124 688.72 628.071 688.72C630.018 688.72 631.764 689.16 633.311 690.04C634.884 690.92 636.124 692.173 637.031 693.8C637.964 695.4 638.431 697.307 638.431 699.52C638.431 701.733 637.978 703.667 637.071 705.32C636.164 706.947 634.924 708.213 633.351 709.12C631.804 710.027 630.044 710.48 628.071 710.48ZM628.071 707.28C630.178 707.28 631.818 706.573 632.991 705.16C634.164 703.72 634.751 701.867 634.751 699.6C634.751 698.213 634.458 696.947 633.871 695.8C633.284 694.627 632.484 693.693 631.471 693C630.484 692.28 629.351 691.92 628.071 691.92C625.964 691.92 624.324 692.613 623.151 694C621.978 695.387 621.391 697.227 621.391 699.52C621.391 700.907 621.684 702.2 622.271 703.4C622.858 704.573 623.644 705.52 624.631 706.24C625.644 706.933 626.791 707.28 628.071 707.28ZM642.417 710V689.2H645.897V692.68C646.644 691.56 647.591 690.627 648.737 689.88C649.911 689.107 651.297 688.72 652.897 688.72C655.244 688.72 656.991 689.427 658.137 690.84C659.311 692.253 659.897 694.12 659.897 696.44V710H656.297V696.84C656.297 695.347 655.937 694.147 655.217 693.24C654.524 692.333 653.551 691.88 652.297 691.88C651.071 691.88 649.911 692.32 648.817 693.2C647.724 694.053 646.791 695.067 646.017 696.24V710H642.417ZM665.689 710V693.08H662.489V689.96H665.689V687.52C665.689 685.173 666.342 683.32 667.649 681.96C668.956 680.6 670.662 679.92 672.769 679.92C673.862 679.92 674.822 680.053 675.649 680.32C676.476 680.56 677.262 680.867 678.009 681.24L676.929 684.28C676.369 683.987 675.769 683.72 675.129 683.48C674.489 683.24 673.782 683.12 673.009 683.12C671.889 683.12 670.982 683.48 670.289 684.2C669.622 684.893 669.289 685.92 669.289 687.28V689.96H675.449V693.08H669.289V710H665.689ZM678.395 710V689.2H681.995V710H678.395ZM680.195 685.64C679.502 685.64 678.902 685.387 678.395 684.88C677.915 684.373 677.675 683.787 677.675 683.12C677.675 682.347 677.902 681.733 678.355 681.28C678.809 680.827 679.422 680.6 680.195 680.6C680.889 680.6 681.475 680.853 681.955 681.36C682.462 681.84 682.715 682.427 682.715 683.12C682.715 683.867 682.489 684.48 682.035 684.96C681.582 685.413 680.969 685.64 680.195 685.64ZM687.595 710V689.2H691.075V693.72C691.422 692.84 691.889 692.027 692.475 691.28C693.062 690.507 693.795 689.893 694.675 689.44C695.555 688.96 696.582 688.72 697.755 688.72C698.155 688.72 698.555 688.747 698.955 688.8C699.355 688.827 699.689 688.88 699.955 688.96L698.875 692.68C698.369 692.467 697.769 692.36 697.075 692.36C696.089 692.36 695.142 692.64 694.235 693.2C693.355 693.76 692.622 694.627 692.035 695.8C691.475 696.973 691.195 698.467 691.195 700.28V710H687.595ZM702.772 710V689.2H706.252V692.68C706.999 691.56 707.945 690.627 709.092 689.88C710.239 689.107 711.545 688.72 713.012 688.72C714.665 688.72 716.012 689.12 717.052 689.92C718.119 690.72 718.865 691.787 719.292 693.12C720.119 691.893 721.092 690.853 722.212 690C723.359 689.147 724.772 688.72 726.452 688.72C728.719 688.72 730.399 689.44 731.492 690.88C732.612 692.293 733.172 694.147 733.172 696.44V710H729.572V696.72C729.572 695.28 729.239 694.12 728.572 693.24C727.905 692.333 726.985 691.88 725.812 691.88C724.612 691.88 723.492 692.333 722.452 693.24C721.439 694.12 720.545 695.16 719.772 696.36V710H716.172V696.72C716.172 695.28 715.839 694.12 715.172 693.24C714.505 692.333 713.585 691.88 712.412 691.88C711.239 691.88 710.132 692.32 709.092 693.2C708.052 694.053 707.145 695.067 706.372 696.24V710H702.772ZM746.533 710.48C744.8 710.48 743.227 710.04 741.813 709.16C740.4 708.28 739.267 707.04 738.413 705.44C737.587 703.813 737.173 701.907 737.173 699.72C737.173 697.64 737.587 695.773 738.413 694.12C739.267 692.467 740.427 691.16 741.893 690.2C743.387 689.213 745.093 688.72 747.013 688.72C748.213 688.72 749.293 688.933 750.253 689.36C751.24 689.76 752.093 690.267 752.813 690.88V689.2H756.093V704.96C756.093 705.973 756.333 706.64 756.813 706.96C757.32 707.253 757.867 707.4 758.453 707.4L757.693 710.2C755.133 710.2 753.587 709.16 753.053 707.08C752.44 707.933 751.6 708.72 750.533 709.44C749.493 710.133 748.16 710.48 746.533 710.48ZM747.333 707.28C748.347 707.28 749.307 707.04 750.213 706.56C751.12 706.053 751.88 705.427 752.493 704.68V693.52C751.773 693.013 750.973 692.613 750.093 692.32C749.24 692 748.333 691.84 747.373 691.84C746.093 691.84 744.96 692.173 743.973 692.84C743.013 693.48 742.253 694.387 741.693 695.56C741.133 696.707 740.853 698.053 740.853 699.6C740.853 701.093 741.133 702.427 741.693 703.6C742.253 704.747 743.027 705.653 744.013 706.32C745 706.96 746.107 707.28 747.333 707.28ZM762.461 710V689.2H765.941V693.72C766.288 692.84 766.754 692.027 767.341 691.28C767.928 690.507 768.661 689.893 769.541 689.44C770.421 688.96 771.448 688.72 772.621 688.72C773.021 688.72 773.421 688.747 773.821 688.8C774.221 688.827 774.554 688.88 774.821 688.96L773.741 692.68C773.234 692.467 772.634 692.36 771.941 692.36C770.954 692.36 770.008 692.64 769.101 693.2C768.221 693.76 767.488 694.627 766.901 695.8C766.341 696.973 766.061 698.467 766.061 700.28V710H762.461ZM808.47 710.4L805.35 702.4H792.39L789.27 710.32L786.03 709L796.99 682H801.15L811.95 709L808.47 710.4ZM793.59 699.2H804.11L798.87 685.76L793.59 699.2ZM823.148 710.48C821.175 710.48 819.442 710.027 817.948 709.12C816.482 708.187 815.348 706.907 814.548 705.28C813.748 703.627 813.348 701.733 813.348 699.6C813.348 697.6 813.748 695.773 814.548 694.12C815.375 692.467 816.548 691.16 818.068 690.2C819.588 689.213 821.375 688.72 823.428 688.72C824.602 688.72 825.628 688.827 826.508 689.04C827.415 689.253 828.282 689.56 829.108 689.96L828.028 693C827.282 692.627 826.562 692.36 825.868 692.2C825.202 692.013 824.455 691.92 823.628 691.92C821.762 691.92 820.188 692.6 818.908 693.96C817.655 695.293 817.028 697.147 817.028 699.52C817.028 700.96 817.295 702.267 817.828 703.44C818.362 704.613 819.095 705.547 820.028 706.24C820.988 706.933 822.108 707.28 823.388 707.28C824.402 707.28 825.268 707.173 825.988 706.96C826.708 706.72 827.482 706.387 828.308 705.96L829.428 709C828.602 709.453 827.668 709.813 826.628 710.08C825.615 710.347 824.455 710.48 823.148 710.48ZM821.988 719.76C821.268 719.76 820.575 719.693 819.908 719.56C819.242 719.427 818.602 719.227 817.988 718.96L818.948 716.44C819.828 716.893 820.788 717.12 821.828 717.12C822.522 717.12 823.095 717 823.548 716.76C824.002 716.52 824.228 716.147 824.228 715.64C824.228 715.16 823.908 714.733 823.268 714.36C822.655 713.987 821.468 713.8 819.708 713.8L821.108 710H823.828L822.988 712.36C824.322 712.36 825.402 712.653 826.228 713.24C827.055 713.853 827.468 714.747 827.468 715.92C827.468 716.907 827.015 717.787 826.108 718.56C825.202 719.36 823.828 719.76 821.988 719.76ZM840.385 710.48C838.652 710.48 837.078 710.04 835.665 709.16C834.252 708.28 833.118 707.04 832.265 705.44C831.438 703.813 831.025 701.907 831.025 699.72C831.025 697.64 831.438 695.773 832.265 694.12C833.118 692.467 834.278 691.16 835.745 690.2C837.238 689.213 838.945 688.72 840.865 688.72C842.065 688.72 843.145 688.933 844.105 689.36C845.092 689.76 845.945 690.267 846.665 690.88V689.2H849.945V704.96C849.945 705.973 850.185 706.64 850.665 706.96C851.172 707.253 851.718 707.4 852.305 707.4L851.545 710.2C848.985 710.2 847.438 709.16 846.905 707.08C846.292 707.933 845.452 708.72 844.385 709.44C843.345 710.133 842.012 710.48 840.385 710.48ZM841.185 707.28C842.198 707.28 843.158 707.04 844.065 706.56C844.972 706.053 845.732 705.427 846.345 704.68V693.52C845.625 693.013 844.825 692.613 843.945 692.32C843.092 692 842.185 691.84 841.225 691.84C839.945 691.84 838.812 692.173 837.825 692.84C836.865 693.48 836.105 694.387 835.545 695.56C834.985 696.707 834.705 698.053 834.705 699.6C834.705 701.093 834.985 702.427 835.545 703.6C836.105 704.747 836.878 705.653 837.865 706.32C838.852 706.96 839.958 707.28 841.185 707.28ZM836.505 685.68L835.105 683.2C835.585 682.667 836.198 682.187 836.945 681.76C837.692 681.333 838.465 681.12 839.265 681.12C839.932 681.12 840.505 681.24 840.985 681.48C841.465 681.693 841.918 681.92 842.345 682.16C842.798 682.373 843.305 682.48 843.865 682.48C844.452 682.48 844.972 682.36 845.425 682.12C845.878 681.853 846.278 681.56 846.625 681.24L848.025 683.76C847.545 684.213 846.985 684.64 846.345 685.04C845.732 685.413 845.012 685.6 844.185 685.6C843.492 685.6 842.905 685.493 842.425 685.28C841.945 685.04 841.478 684.813 841.025 684.6C840.572 684.36 840.038 684.24 839.425 684.24C838.838 684.24 838.305 684.387 837.825 684.68C837.345 684.973 836.905 685.307 836.505 685.68ZM864.682 710.48C862.709 710.48 860.935 710.027 859.362 709.12C857.789 708.187 856.549 706.907 855.642 705.28C854.762 703.627 854.322 701.733 854.322 699.6C854.322 697.36 854.775 695.427 855.682 693.8C856.589 692.173 857.829 690.92 859.402 690.04C860.975 689.16 862.735 688.72 864.682 688.72C866.629 688.72 868.375 689.16 869.922 690.04C871.495 690.92 872.735 692.173 873.642 693.8C874.575 695.4 875.042 697.307 875.042 699.52C875.042 701.733 874.589 703.667 873.682 705.32C872.775 706.947 871.535 708.213 869.962 709.12C868.415 710.027 866.655 710.48 864.682 710.48ZM864.682 707.28C866.789 707.28 868.429 706.573 869.602 705.16C870.775 703.72 871.362 701.867 871.362 699.6C871.362 698.213 871.069 696.947 870.482 695.8C869.895 694.627 869.095 693.693 868.082 693C867.095 692.28 865.962 691.92 864.682 691.92C862.575 691.92 860.935 692.613 859.762 694C858.589 695.387 858.002 697.227 858.002 699.52C858.002 700.907 858.295 702.2 858.882 703.4C859.469 704.573 860.255 705.52 861.242 706.24C862.255 706.933 863.402 707.28 864.682 707.28Z" fill="black"/>
<path d="M604 793V768.36H595.4V765H616.4V768.36H607.8V793H604ZM624.118 793.48C621.132 793.48 618.758 792.533 616.998 790.64C615.265 788.72 614.398 786.04 614.398 782.6C614.398 780.52 614.785 778.667 615.558 777.04C616.358 775.387 617.465 774.093 618.878 773.16C620.292 772.2 621.932 771.72 623.798 771.72C625.798 771.72 627.452 772.16 628.758 773.04C630.092 773.893 631.092 775.053 631.758 776.52C632.425 777.987 632.758 779.6 632.758 781.36C632.758 782.293 632.718 783.2 632.638 784.08H618.078C618.318 786.027 618.998 787.547 620.118 788.64C621.238 789.733 622.718 790.28 624.558 790.28C625.758 790.28 626.838 790.16 627.798 789.92C628.758 789.653 629.678 789.32 630.558 788.92L631.398 792C630.438 792.427 629.358 792.773 628.158 793.04C626.958 793.333 625.612 793.48 624.118 793.48ZM618.038 781.16H629.438C629.438 779.133 628.932 777.573 627.918 776.48C626.905 775.387 625.505 774.84 623.718 774.84C622.172 774.84 620.892 775.387 619.878 776.48C618.865 777.547 618.252 779.107 618.038 781.16ZM636.756 793V772.2H640.236V775.68C640.983 774.56 641.93 773.627 643.076 772.88C644.223 772.107 645.53 771.72 646.996 771.72C648.65 771.72 649.996 772.12 651.036 772.92C652.103 773.72 652.85 774.787 653.276 776.12C654.103 774.893 655.076 773.853 656.196 773C657.343 772.147 658.756 771.72 660.436 771.72C662.703 771.72 664.383 772.44 665.476 773.88C666.596 775.293 667.156 777.147 667.156 779.44V793H663.556V779.72C663.556 778.28 663.223 777.12 662.556 776.24C661.89 775.333 660.97 774.88 659.796 774.88C658.596 774.88 657.476 775.333 656.436 776.24C655.423 777.12 654.53 778.16 653.756 779.36V793H650.156V779.72C650.156 778.28 649.823 777.12 649.156 776.24C648.49 775.333 647.57 774.88 646.396 774.88C645.223 774.88 644.116 775.32 643.076 776.2C642.036 777.053 641.13 778.067 640.356 779.24V793H636.756ZM691.71 793.48C689.977 793.48 688.403 793.04 686.99 792.16C685.577 791.28 684.443 790.04 683.59 788.44C682.763 786.813 682.35 784.907 682.35 782.72C682.35 780.64 682.763 778.773 683.59 777.12C684.443 775.467 685.603 774.16 687.07 773.2C688.563 772.213 690.27 771.72 692.19 771.72C693.39 771.72 694.47 771.933 695.43 772.36C696.417 772.76 697.27 773.267 697.99 773.88V772.2H701.27V787.96C701.27 788.973 701.51 789.64 701.99 789.96C702.497 790.253 703.043 790.4 703.63 790.4L702.87 793.2C700.31 793.2 698.763 792.16 698.23 790.08C697.617 790.933 696.777 791.72 695.71 792.44C694.67 793.133 693.337 793.48 691.71 793.48ZM692.51 790.28C693.523 790.28 694.483 790.04 695.39 789.56C696.297 789.053 697.057 788.427 697.67 787.68V776.52C696.95 776.013 696.15 775.613 695.27 775.32C694.417 775 693.51 774.84 692.55 774.84C691.27 774.84 690.137 775.173 689.15 775.84C688.19 776.48 687.43 777.387 686.87 778.56C686.31 779.707 686.03 781.053 686.03 782.6C686.03 784.093 686.31 785.427 686.87 786.6C687.43 787.747 688.203 788.653 689.19 789.32C690.177 789.96 691.283 790.28 692.51 790.28ZM727.23 793.48C725.256 793.48 723.523 793.027 722.03 792.12C720.563 791.187 719.43 789.907 718.63 788.28C717.83 786.627 717.43 784.733 717.43 782.6C717.43 780.6 717.83 778.773 718.63 777.12C719.456 775.467 720.63 774.16 722.15 773.2C723.67 772.213 725.456 771.72 727.51 771.72C728.683 771.72 729.71 771.827 730.59 772.04C731.496 772.253 732.363 772.56 733.19 772.96L732.11 776C731.363 775.627 730.643 775.36 729.95 775.2C729.283 775.013 728.536 774.92 727.71 774.92C725.843 774.92 724.27 775.6 722.99 776.96C721.736 778.293 721.11 780.147 721.11 782.52C721.11 783.96 721.376 785.267 721.91 786.44C722.443 787.613 723.176 788.547 724.11 789.24C725.07 789.933 726.19 790.28 727.47 790.28C728.483 790.28 729.35 790.173 730.07 789.96C730.79 789.72 731.563 789.387 732.39 788.96L733.51 792C732.683 792.453 731.75 792.813 730.71 793.08C729.696 793.347 728.536 793.48 727.23 793.48ZM744.826 793.48C741.84 793.48 739.466 792.533 737.706 790.64C735.973 788.72 735.106 786.04 735.106 782.6C735.106 780.52 735.493 778.667 736.266 777.04C737.066 775.387 738.173 774.093 739.586 773.16C741 772.2 742.64 771.72 744.506 771.72C746.506 771.72 748.16 772.16 749.466 773.04C750.8 773.893 751.8 775.053 752.466 776.52C753.133 777.987 753.466 779.6 753.466 781.36C753.466 782.293 753.426 783.2 753.346 784.08H738.786C739.026 786.027 739.706 787.547 740.826 788.64C741.946 789.733 743.426 790.28 745.266 790.28C746.466 790.28 747.546 790.16 748.506 789.92C749.466 789.653 750.386 789.32 751.266 788.92L752.106 792C751.146 792.427 750.066 792.773 748.866 793.04C747.666 793.333 746.32 793.48 744.826 793.48ZM738.746 781.16H750.146C750.146 779.133 749.64 777.573 748.626 776.48C747.613 775.387 746.213 774.84 744.426 774.84C742.88 774.84 741.6 775.387 740.586 776.48C739.573 777.547 738.96 779.107 738.746 781.16ZM757.464 793V772.2H760.944V776.72C761.291 775.84 761.757 775.027 762.344 774.28C762.931 773.507 763.664 772.893 764.544 772.44C765.424 771.96 766.451 771.72 767.624 771.72C768.024 771.72 768.424 771.747 768.824 771.8C769.224 771.827 769.557 771.88 769.824 771.96L768.744 775.68C768.237 775.467 767.637 775.36 766.944 775.36C765.957 775.36 765.011 775.64 764.104 776.2C763.224 776.76 762.491 777.627 761.904 778.8C761.344 779.973 761.064 781.467 761.064 783.28V793H757.464ZM780.702 793.48C778.702 793.48 777.115 792.827 775.942 791.52C774.795 790.187 774.222 788.293 774.222 785.84V776.08H770.622V772.96H774.302L775.062 766.4H777.822V772.96H783.582V776.08H777.822V786.12C777.822 787.667 778.142 788.747 778.782 789.36C779.449 789.973 780.235 790.28 781.142 790.28C781.809 790.28 782.435 790.173 783.022 789.96C783.635 789.747 784.195 789.493 784.702 789.2L785.702 792.08C785.169 792.4 784.449 792.707 783.542 793C782.635 793.32 781.689 793.48 780.702 793.48ZM796.059 793.48C793.072 793.48 790.699 792.533 788.939 790.64C787.206 788.72 786.339 786.04 786.339 782.6C786.339 780.52 786.726 778.667 787.499 777.04C788.299 775.387 789.406 774.093 790.819 773.16C792.232 772.2 793.872 771.72 795.739 771.72C797.739 771.72 799.392 772.16 800.699 773.04C802.032 773.893 803.032 775.053 803.699 776.52C804.366 777.987 804.699 779.6 804.699 781.36C804.699 782.293 804.659 783.2 804.579 784.08H790.019C790.259 786.027 790.939 787.547 792.059 788.64C793.179 789.733 794.659 790.28 796.499 790.28C797.699 790.28 798.779 790.16 799.739 789.92C800.699 789.653 801.619 789.32 802.499 788.92L803.339 792C802.379 792.427 801.299 792.773 800.099 793.04C798.899 793.333 797.552 793.48 796.059 793.48ZM789.979 781.16H801.379C801.379 779.133 800.872 777.573 799.859 776.48C798.846 775.387 797.446 774.84 795.659 774.84C794.112 774.84 792.832 775.387 791.819 776.48C790.806 777.547 790.192 779.107 789.979 781.16ZM806.897 793V790.16L818.377 775.32H807.137V772.2H822.777V774.96L811.337 789.8H822.977V793H806.897ZM834.333 793.48C832.6 793.48 831.027 793.04 829.613 792.16C828.2 791.28 827.067 790.04 826.213 788.44C825.387 786.813 824.973 784.907 824.973 782.72C824.973 780.64 825.387 778.773 826.213 777.12C827.067 775.467 828.227 774.16 829.693 773.2C831.187 772.213 832.893 771.72 834.813 771.72C836.013 771.72 837.093 771.933 838.053 772.36C839.04 772.76 839.893 773.267 840.613 773.88V772.2H843.893V787.96C843.893 788.973 844.133 789.64 844.613 789.96C845.12 790.253 845.667 790.4 846.253 790.4L845.493 793.2C842.933 793.2 841.387 792.16 840.853 790.08C840.24 790.933 839.4 791.72 838.333 792.44C837.293 793.133 835.96 793.48 834.333 793.48ZM835.133 790.28C836.147 790.28 837.107 790.04 838.013 789.56C838.92 789.053 839.68 788.427 840.293 787.68V776.52C839.573 776.013 838.773 775.613 837.893 775.32C837.04 775 836.133 774.84 835.173 774.84C833.893 774.84 832.76 775.173 831.773 775.84C830.813 776.48 830.053 777.387 829.493 778.56C828.933 779.707 828.653 781.053 828.653 782.6C828.653 784.093 828.933 785.427 829.493 786.6C830.053 787.747 830.827 788.653 831.813 789.32C832.8 789.96 833.907 790.28 835.133 790.28ZM875.213 801.8V790.88C874.653 791.467 873.866 792.053 872.853 792.64C871.866 793.2 870.706 793.48 869.373 793.48C867.773 793.48 866.253 793.067 864.813 792.24C863.4 791.413 862.253 790.2 861.373 788.6C860.493 786.973 860.053 785 860.053 782.68C860.053 780.493 860.493 778.587 861.373 776.96C862.253 775.307 863.426 774.027 864.893 773.12C866.36 772.187 867.973 771.72 869.733 771.72C870.933 771.72 872.013 771.933 872.973 772.36C873.96 772.76 874.813 773.267 875.533 773.88V772.2H878.813V801.8H875.213ZM870.173 790.28C871.24 790.28 872.213 790.027 873.093 789.52C873.973 789.013 874.68 788.427 875.213 787.76V776.52C874.493 776.013 873.693 775.613 872.813 775.32C871.96 775 871.053 774.84 870.093 774.84C868.946 774.84 867.893 775.147 866.933 775.76C865.973 776.373 865.2 777.253 864.613 778.4C864.026 779.547 863.733 780.933 863.733 782.56C863.733 784.16 864.026 785.547 864.613 786.72C865.226 787.867 866.026 788.747 867.013 789.36C868 789.973 869.053 790.28 870.173 790.28ZM891.203 793.48C890.003 793.48 888.87 793.227 887.803 792.72C886.736 792.213 885.87 791.4 885.203 790.28C884.536 789.133 884.203 787.613 884.203 785.72V772.2H887.803V785.24C887.803 786.867 888.15 788.12 888.843 789C889.536 789.853 890.55 790.28 891.883 790.28C892.976 790.28 894.03 790.067 895.043 789.64C896.083 789.187 897.003 788.587 897.803 787.84V772.2H901.403V787.6C901.403 788.747 901.643 789.507 902.123 789.88C902.63 790.227 903.176 790.4 903.763 790.4L903.003 793.2C900.523 793.2 898.99 792.213 898.403 790.24C897.47 791.2 896.39 791.987 895.163 792.6C893.936 793.187 892.616 793.48 891.203 793.48ZM915.673 793.48C912.686 793.48 910.313 792.533 908.553 790.64C906.82 788.72 905.953 786.04 905.953 782.6C905.953 780.52 906.34 778.667 907.113 777.04C907.913 775.387 909.02 774.093 910.433 773.16C911.846 772.2 913.486 771.72 915.353 771.72C917.353 771.72 919.006 772.16 920.313 773.04C921.646 773.893 922.646 775.053 923.313 776.52C923.98 777.987 924.313 779.6 924.313 781.36C924.313 782.293 924.273 783.2 924.193 784.08H909.633C909.873 786.027 910.553 787.547 911.673 788.64C912.793 789.733 914.273 790.28 916.113 790.28C917.313 790.28 918.393 790.16 919.353 789.92C920.313 789.653 921.233 789.32 922.113 788.92L922.953 792C921.993 792.427 920.913 792.773 919.713 793.04C918.513 793.333 917.166 793.48 915.673 793.48ZM909.593 781.16H920.993C920.993 779.133 920.486 777.573 919.473 776.48C918.46 775.387 917.06 774.84 915.273 774.84C913.726 774.84 912.446 775.387 911.433 776.48C910.42 777.547 909.806 779.107 909.593 781.16ZM940.263 801.8V777.52C940.263 776.613 940.036 775.973 939.583 775.6C939.156 775.2 938.596 775 937.903 775L938.663 772.2C941.116 772.2 942.65 773.173 943.263 775.12C943.53 774.72 943.956 774.253 944.543 773.72C945.156 773.187 945.903 772.72 946.783 772.32C947.69 771.92 948.716 771.72 949.863 771.72C951.463 771.72 952.956 772.147 954.343 773C955.756 773.827 956.89 775.04 957.743 776.64C958.596 778.213 959.023 780.133 959.023 782.4C959.023 784.613 958.596 786.56 957.743 788.24C956.89 789.893 955.77 791.187 954.383 792.12C953.023 793.027 951.543 793.48 949.943 793.48C948.716 793.48 947.57 793.24 946.503 792.76C945.436 792.253 944.556 791.68 943.863 791.04V801.8H940.263ZM949.223 790.28C951.036 790.28 952.503 789.573 953.623 788.16C954.77 786.72 955.343 784.84 955.343 782.52C955.343 780.92 955.05 779.547 954.463 778.4C953.903 777.253 953.143 776.373 952.183 775.76C951.25 775.147 950.21 774.84 949.063 774.84C947.916 774.84 946.876 775.133 945.943 775.72C945.036 776.28 944.343 776.893 943.863 777.56V787.8C944.556 788.52 945.356 789.12 946.263 789.6C947.17 790.053 948.156 790.28 949.223 790.28ZM971.554 793.48C968.568 793.48 966.194 792.533 964.434 790.64C962.701 788.72 961.834 786.04 961.834 782.6C961.834 780.52 962.221 778.667 962.994 777.04C963.794 775.387 964.901 774.093 966.314 773.16C967.728 772.2 969.368 771.72 971.234 771.72C973.234 771.72 974.888 772.16 976.194 773.04C977.528 773.893 978.528 775.053 979.194 776.52C979.861 777.987 980.194 779.6 980.194 781.36C980.194 782.293 980.154 783.2 980.074 784.08H965.514C965.754 786.027 966.434 787.547 967.554 788.64C968.674 789.733 970.154 790.28 971.994 790.28C973.194 790.28 974.274 790.16 975.234 789.92C976.194 789.653 977.114 789.32 977.994 788.92L978.834 792C977.874 792.427 976.794 792.773 975.594 793.04C974.394 793.333 973.048 793.48 971.554 793.48ZM965.474 781.16H976.874C976.874 779.133 976.368 777.573 975.354 776.48C974.341 775.387 972.941 774.84 971.154 774.84C969.608 774.84 968.328 775.387 967.314 776.48C966.301 777.547 965.688 779.107 965.474 781.16ZM984.192 793V772.2H987.672V776.72C988.019 775.84 988.486 775.027 989.072 774.28C989.659 773.507 990.392 772.893 991.272 772.44C992.152 771.96 993.179 771.72 994.352 771.72C994.752 771.72 995.152 771.747 995.552 771.8C995.952 771.827 996.286 771.88 996.552 771.96L995.472 775.68C994.966 775.467 994.366 775.36 993.672 775.36C992.686 775.36 991.739 775.64 990.832 776.2C989.952 776.76 989.219 777.627 988.632 778.8C988.072 779.973 987.792 781.467 987.792 783.28V793H984.192ZM1007.43 793.48C1005.43 793.48 1003.84 792.827 1002.67 791.52C1001.52 790.187 1000.95 788.293 1000.95 785.84V776.08H997.35V772.96H1001.03L1001.79 766.4H1004.55V772.96H1010.31V776.08H1004.55V786.12C1004.55 787.667 1004.87 788.747 1005.51 789.36C1006.18 789.973 1006.96 790.28 1007.87 790.28C1008.54 790.28 1009.16 790.173 1009.75 789.96C1010.36 789.747 1010.92 789.493 1011.43 789.2L1012.43 792.08C1011.9 792.4 1011.18 792.707 1010.27 793C1009.36 793.32 1008.42 793.48 1007.43 793.48ZM1022.79 793.48C1019.8 793.48 1017.43 792.533 1015.67 790.64C1013.93 788.72 1013.07 786.04 1013.07 782.6C1013.07 780.52 1013.45 778.667 1014.23 777.04C1015.03 775.387 1016.13 774.093 1017.55 773.16C1018.96 772.2 1020.6 771.72 1022.47 771.72C1024.47 771.72 1026.12 772.16 1027.43 773.04C1028.76 773.893 1029.76 775.053 1030.43 776.52C1031.09 777.987 1031.43 779.6 1031.43 781.36C1031.43 782.293 1031.39 783.2 1031.31 784.08H1016.75C1016.99 786.027 1017.67 787.547 1018.79 788.64C1019.91 789.733 1021.39 790.28 1023.23 790.28C1024.43 790.28 1025.51 790.16 1026.47 789.92C1027.43 789.653 1028.35 789.32 1029.23 788.92L1030.07 792C1029.11 792.427 1028.03 792.773 1026.83 793.04C1025.63 793.333 1024.28 793.48 1022.79 793.48ZM1016.71 781.16H1028.11C1028.11 779.133 1027.6 777.573 1026.59 776.48C1025.57 775.387 1024.17 774.84 1022.39 774.84C1020.84 774.84 1019.56 775.387 1018.55 776.48C1017.53 777.547 1016.92 779.107 1016.71 781.16ZM1035.43 793V772.2H1038.91V775.68C1039.65 774.56 1040.6 773.627 1041.75 772.88C1042.92 772.107 1044.31 771.72 1045.91 771.72C1048.25 771.72 1050 772.427 1051.15 773.84C1052.32 775.253 1052.91 777.12 1052.91 779.44V793H1049.31V779.84C1049.31 778.347 1048.95 777.147 1048.23 776.24C1047.53 775.333 1046.56 774.88 1045.31 774.88C1044.08 774.88 1042.92 775.32 1041.83 776.2C1040.73 777.053 1039.8 778.067 1039.03 779.24V793H1035.43ZM1066.18 793.48C1064.47 793.48 1062.91 793.04 1061.5 792.16C1060.08 791.28 1058.96 790.04 1058.14 788.44C1057.31 786.813 1056.9 784.907 1056.9 782.72C1056.9 780.613 1057.31 778.733 1058.14 777.08C1058.99 775.427 1060.11 774.12 1061.5 773.16C1062.91 772.2 1064.46 771.72 1066.14 771.72C1067.52 771.72 1068.71 772 1069.7 772.56C1070.71 773.12 1071.5 773.693 1072.06 774.28V763.4H1075.66V787.96C1075.66 788.973 1075.9 789.64 1076.38 789.96C1076.88 790.253 1077.43 790.4 1078.02 790.4L1077.26 793.2C1074.72 793.2 1073.18 792.187 1072.62 790.16C1072.03 790.987 1071.2 791.747 1070.14 792.44C1069.1 793.133 1067.78 793.48 1066.18 793.48ZM1066.98 790.28C1067.96 790.28 1068.9 790.053 1069.78 789.6C1070.68 789.12 1071.44 788.507 1072.06 787.76V777.44C1071.55 776.8 1070.84 776.213 1069.94 775.68C1069.03 775.12 1068.03 774.84 1066.94 774.84C1065.66 774.84 1064.54 775.187 1063.58 775.88C1062.62 776.573 1061.87 777.507 1061.34 778.68C1060.83 779.827 1060.58 781.133 1060.58 782.6C1060.58 784.067 1060.86 785.387 1061.42 786.56C1061.98 787.707 1062.74 788.613 1063.7 789.28C1064.68 789.947 1065.78 790.28 1066.98 790.28ZM1089.96 793.48C1086.97 793.48 1084.6 792.533 1082.84 790.64C1081.1 788.72 1080.24 786.04 1080.24 782.6C1080.24 780.52 1080.62 778.667 1081.4 777.04C1082.2 775.387 1083.3 774.093 1084.72 773.16C1086.13 772.2 1087.77 771.72 1089.64 771.72C1091.64 771.72 1093.29 772.16 1094.6 773.04C1095.93 773.893 1096.93 775.053 1097.6 776.52C1098.26 777.987 1098.6 779.6 1098.6 781.36C1098.6 782.293 1098.56 783.2 1098.48 784.08H1083.92C1084.16 786.027 1084.84 787.547 1085.96 788.64C1087.08 789.733 1088.56 790.28 1090.4 790.28C1091.6 790.28 1092.68 790.16 1093.64 789.92C1094.6 789.653 1095.52 789.32 1096.4 788.92L1097.24 792C1096.28 792.427 1095.2 792.773 1094 793.04C1092.8 793.333 1091.45 793.48 1089.96 793.48ZM1083.88 781.16H1095.28C1095.28 779.133 1094.77 777.573 1093.76 776.48C1092.74 775.387 1091.34 774.84 1089.56 774.84C1088.01 774.84 1086.73 775.387 1085.72 776.48C1084.7 777.547 1084.09 779.107 1083.88 781.16ZM1113.79 793V772.2H1117.27V776.72C1117.61 775.84 1118.08 775.027 1118.67 774.28C1119.25 773.507 1119.99 772.893 1120.87 772.44C1121.75 771.96 1122.77 771.72 1123.95 771.72C1124.35 771.72 1124.75 771.747 1125.15 771.8C1125.55 771.827 1125.88 771.88 1126.15 771.96L1125.07 775.68C1124.56 775.467 1123.96 775.36 1123.27 775.36C1122.28 775.36 1121.33 775.64 1120.43 776.2C1119.55 776.76 1118.81 777.627 1118.23 778.8C1117.67 779.973 1117.39 781.467 1117.39 783.28V793H1113.79ZM1136.07 793.48C1133.09 793.48 1130.71 792.533 1128.95 790.64C1127.22 788.72 1126.35 786.04 1126.35 782.6C1126.35 780.52 1126.74 778.667 1127.51 777.04C1128.31 775.387 1129.42 774.093 1130.83 773.16C1132.25 772.2 1133.89 771.72 1135.75 771.72C1137.75 771.72 1139.41 772.16 1140.71 773.04C1142.05 773.893 1143.05 775.053 1143.71 776.52C1144.38 777.987 1144.71 779.6 1144.71 781.36C1144.71 782.293 1144.67 783.2 1144.59 784.08H1130.03C1130.27 786.027 1130.95 787.547 1132.07 788.64C1133.19 789.733 1134.67 790.28 1136.51 790.28C1137.71 790.28 1138.79 790.16 1139.75 789.92C1140.71 789.653 1141.63 789.32 1142.51 788.92L1143.35 792C1142.39 792.427 1141.31 792.773 1140.11 793.04C1138.91 793.333 1137.57 793.48 1136.07 793.48ZM1129.99 781.16H1141.39C1141.39 779.133 1140.89 777.573 1139.87 776.48C1138.86 775.387 1137.46 774.84 1135.67 774.84C1134.13 774.84 1132.85 775.387 1131.83 776.48C1130.82 777.547 1130.21 779.107 1129.99 781.16ZM1156.67 793.48C1154.94 793.48 1153.36 793.04 1151.95 792.16C1150.54 791.28 1149.4 790.04 1148.55 788.44C1147.72 786.813 1147.31 784.907 1147.31 782.72C1147.31 780.64 1147.72 778.773 1148.55 777.12C1149.4 775.467 1150.56 774.16 1152.03 773.2C1153.52 772.213 1155.23 771.72 1157.15 771.72C1158.35 771.72 1159.43 771.933 1160.39 772.36C1161.38 772.76 1162.23 773.267 1162.95 773.88V772.2H1166.23V787.96C1166.23 788.973 1166.47 789.64 1166.95 789.96C1167.46 790.253 1168 790.4 1168.59 790.4L1167.83 793.2C1165.27 793.2 1163.72 792.16 1163.19 790.08C1162.58 790.933 1161.74 791.72 1160.67 792.44C1159.63 793.133 1158.3 793.48 1156.67 793.48ZM1157.47 790.28C1158.48 790.28 1159.44 790.04 1160.35 789.56C1161.26 789.053 1162.02 788.427 1162.63 787.68V776.52C1161.91 776.013 1161.11 775.613 1160.23 775.32C1159.38 775 1158.47 774.84 1157.51 774.84C1156.23 774.84 1155.1 775.173 1154.11 775.84C1153.15 776.48 1152.39 777.387 1151.83 778.56C1151.27 779.707 1150.99 781.053 1150.99 782.6C1150.99 784.093 1151.27 785.427 1151.83 786.6C1152.39 787.747 1153.16 788.653 1154.15 789.32C1155.14 789.96 1156.24 790.28 1157.47 790.28ZM1178.92 793.48C1177.69 793.48 1176.59 793.253 1175.6 792.8C1174.61 792.32 1173.83 791.56 1173.24 790.52C1172.68 789.48 1172.4 788.133 1172.4 786.48V763.4H1176V786.12C1176 787.56 1176.29 788.627 1176.88 789.32C1177.49 790.013 1178.33 790.36 1179.4 790.36C1179.91 790.36 1180.4 790.307 1180.88 790.2C1181.39 790.067 1181.81 789.92 1182.16 789.76L1183.04 792.68C1182.56 792.893 1181.96 793.08 1181.24 793.24C1180.55 793.4 1179.77 793.48 1178.92 793.48ZM1185.63 793V772.2H1189.23V793H1185.63ZM1187.43 768.64C1186.73 768.64 1186.13 768.387 1185.63 767.88C1185.15 767.373 1184.91 766.787 1184.91 766.12C1184.91 765.347 1185.13 764.733 1185.59 764.28C1186.04 763.827 1186.65 763.6 1187.43 763.6C1188.12 763.6 1188.71 763.853 1189.19 764.36C1189.69 764.84 1189.95 765.427 1189.95 766.12C1189.95 766.867 1189.72 767.48 1189.27 767.96C1188.81 768.413 1188.2 768.64 1187.43 768.64ZM1193.03 793V790.16L1204.51 775.32H1193.27V772.2H1208.91V774.96L1197.47 789.8H1209.11V793H1193.03ZM1220.46 793.48C1218.73 793.48 1217.16 793.04 1215.74 792.16C1214.33 791.28 1213.2 790.04 1212.34 788.44C1211.52 786.813 1211.1 784.907 1211.1 782.72C1211.1 780.64 1211.52 778.773 1212.34 777.12C1213.2 775.467 1214.36 774.16 1215.82 773.2C1217.32 772.213 1219.02 771.72 1220.94 771.72C1222.14 771.72 1223.22 771.933 1224.18 772.36C1225.17 772.76 1226.02 773.267 1226.74 773.88V772.2H1230.02V787.96C1230.02 788.973 1230.26 789.64 1230.74 789.96C1231.25 790.253 1231.8 790.4 1232.38 790.4L1231.62 793.2C1229.06 793.2 1227.52 792.16 1226.98 790.08C1226.37 790.933 1225.53 791.72 1224.46 792.44C1223.42 793.133 1222.09 793.48 1220.46 793.48ZM1221.26 790.28C1222.28 790.28 1223.24 790.04 1224.14 789.56C1225.05 789.053 1225.81 788.427 1226.42 787.68V776.52C1225.7 776.013 1224.9 775.613 1224.02 775.32C1223.17 775 1222.26 774.84 1221.3 774.84C1220.02 774.84 1218.89 775.173 1217.9 775.84C1216.94 776.48 1216.18 777.387 1215.62 778.56C1215.06 779.707 1214.78 781.053 1214.78 782.6C1214.78 784.093 1215.06 785.427 1215.62 786.6C1216.18 787.747 1216.96 788.653 1217.94 789.32C1218.93 789.96 1220.04 790.28 1221.26 790.28ZM1236.39 793V772.2H1239.87V776.72C1240.22 775.84 1240.68 775.027 1241.27 774.28C1241.86 773.507 1242.59 772.893 1243.47 772.44C1244.35 771.96 1245.38 771.72 1246.55 771.72C1246.95 771.72 1247.35 771.747 1247.75 771.8C1248.15 771.827 1248.48 771.88 1248.75 771.96L1247.67 775.68C1247.16 775.467 1246.56 775.36 1245.87 775.36C1244.88 775.36 1243.94 775.64 1243.03 776.2C1242.15 776.76 1241.42 777.627 1240.83 778.8C1240.27 779.973 1239.99 781.467 1239.99 783.28V793H1236.39ZM1271.08 793.48C1268.09 793.48 1265.72 792.533 1263.96 790.64C1262.23 788.72 1261.36 786.04 1261.36 782.6C1261.36 780.52 1261.75 778.667 1262.52 777.04C1263.32 775.387 1264.43 774.093 1265.84 773.16C1267.25 772.2 1268.89 771.72 1270.76 771.72C1272.76 771.72 1274.41 772.16 1275.72 773.04C1277.05 773.893 1278.05 775.053 1278.72 776.52C1279.39 777.987 1279.72 779.6 1279.72 781.36C1279.72 782.293 1279.68 783.2 1279.6 784.08H1265.04C1265.28 786.027 1265.96 787.547 1267.08 788.64C1268.2 789.733 1269.68 790.28 1271.52 790.28C1272.72 790.28 1273.8 790.16 1274.76 789.92C1275.72 789.653 1276.64 789.32 1277.52 788.92L1278.36 792C1277.4 792.427 1276.32 792.773 1275.12 793.04C1273.92 793.333 1272.57 793.48 1271.08 793.48ZM1265 781.16H1276.4C1276.4 779.133 1275.89 777.573 1274.88 776.48C1273.87 775.387 1272.47 774.84 1270.68 774.84C1269.13 774.84 1267.85 775.387 1266.84 776.48C1265.83 777.547 1265.21 779.107 1265 781.16ZM1289.32 793.48C1287.74 793.48 1286.32 793.28 1285.04 792.88C1283.78 792.48 1282.74 791.96 1281.92 791.32L1283.44 788.32C1284.13 788.907 1285 789.4 1286.04 789.8C1287.1 790.173 1288.24 790.36 1289.44 790.36C1290.93 790.36 1292.05 790.12 1292.8 789.64C1293.57 789.133 1293.96 788.493 1293.96 787.72C1293.96 787.16 1293.81 786.667 1293.52 786.24C1293.25 785.813 1292.74 785.4 1292 785C1291.25 784.573 1290.17 784.12 1288.76 783.64C1286.81 782.973 1285.34 782.187 1284.36 781.28C1283.4 780.347 1282.92 779.067 1282.92 777.44C1282.92 775.84 1283.61 774.493 1285 773.4C1286.41 772.28 1288.36 771.72 1290.84 771.72C1292.17 771.72 1293.36 771.867 1294.4 772.16C1295.44 772.427 1296.37 772.773 1297.2 773.2L1296.2 776.16C1295.48 775.733 1294.65 775.387 1293.72 775.12C1292.81 774.853 1291.8 774.72 1290.68 774.72C1289.29 774.72 1288.24 775 1287.52 775.56C1286.8 776.12 1286.44 776.733 1286.44 777.4C1286.44 778.04 1286.72 778.587 1287.28 779.04C1287.84 779.493 1288.93 779.987 1290.56 780.52C1293.2 781.4 1295.04 782.373 1296.08 783.44C1297.12 784.507 1297.64 785.84 1297.64 787.44C1297.64 789.307 1296.88 790.787 1295.36 791.88C1293.86 792.947 1291.85 793.48 1289.32 793.48ZM1308.91 793.48C1306.91 793.48 1305.32 792.827 1304.15 791.52C1303 790.187 1302.43 788.293 1302.43 785.84V776.08H1298.83V772.96H1302.51L1303.27 766.4H1306.03V772.96H1311.79V776.08H1306.03V786.12C1306.03 787.667 1306.35 788.747 1306.99 789.36C1307.65 789.973 1308.44 790.28 1309.35 790.28C1310.01 790.28 1310.64 790.173 1311.23 789.96C1311.84 789.747 1312.4 789.493 1312.91 789.2L1313.91 792.08C1313.37 792.4 1312.65 792.707 1311.75 793C1310.84 793.32 1309.89 793.48 1308.91 793.48ZM1323.91 793.48C1322.17 793.48 1320.6 793.04 1319.19 792.16C1317.77 791.28 1316.64 790.04 1315.79 788.44C1314.96 786.813 1314.55 784.907 1314.55 782.72C1314.55 780.64 1314.96 778.773 1315.79 777.12C1316.64 775.467 1317.8 774.16 1319.27 773.2C1320.76 772.213 1322.47 771.72 1324.39 771.72C1325.59 771.72 1326.67 771.933 1327.63 772.36C1328.61 772.76 1329.47 773.267 1330.19 773.88V772.2H1333.47V787.96C1333.47 788.973 1333.71 789.64 1334.19 789.96C1334.69 790.253 1335.24 790.4 1335.83 790.4L1335.07 793.2C1332.51 793.2 1330.96 792.16 1330.43 790.08C1329.81 790.933 1328.97 791.72 1327.91 792.44C1326.87 793.133 1325.53 793.48 1323.91 793.48ZM1324.71 790.28C1325.72 790.28 1326.68 790.04 1327.59 789.56C1328.49 789.053 1329.25 788.427 1329.87 787.68V776.52C1329.15 776.013 1328.35 775.613 1327.47 775.32C1326.61 775 1325.71 774.84 1324.75 774.84C1323.47 774.84 1322.33 775.173 1321.35 775.84C1320.39 776.48 1319.63 777.387 1319.07 778.56C1318.51 779.707 1318.23 781.053 1318.23 782.6C1318.23 784.093 1318.51 785.427 1319.07 786.6C1319.63 787.747 1320.4 788.653 1321.39 789.32C1322.37 789.96 1323.48 790.28 1324.71 790.28ZM606.16 840.48C604.427 840.48 602.853 840.04 601.44 839.16C600.027 838.28 598.893 837.04 598.04 835.44C597.213 833.813 596.8 831.907 596.8 829.72C596.8 827.64 597.213 825.773 598.04 824.12C598.893 822.467 600.053 821.16 601.52 820.2C603.013 819.213 604.72 818.72 606.64 818.72C607.84 818.72 608.92 818.933 609.88 819.36C610.867 819.76 611.72 820.267 612.44 820.88V819.2H615.72V834.96C615.72 835.973 615.96 836.64 616.44 836.96C616.947 837.253 617.493 837.4 618.08 837.4L617.32 840.2C614.76 840.2 613.213 839.16 612.68 837.08C612.067 837.933 611.227 838.72 610.16 839.44C609.12 840.133 607.787 840.48 606.16 840.48ZM606.96 837.28C607.973 837.28 608.933 837.04 609.84 836.56C610.747 836.053 611.507 835.427 612.12 834.68V823.52C611.4 823.013 610.6 822.613 609.72 822.32C608.867 822 607.96 821.84 607 821.84C605.72 821.84 604.587 822.173 603.6 822.84C602.64 823.48 601.88 824.387 601.32 825.56C600.76 826.707 600.48 828.053 600.48 829.6C600.48 831.093 600.76 832.427 601.32 833.6C601.88 834.747 602.653 835.653 603.64 836.32C604.627 836.96 605.733 837.28 606.96 837.28ZM630.097 840.48C628.124 840.48 626.39 840.027 624.897 839.12C623.43 838.187 622.297 836.907 621.497 835.28C620.697 833.627 620.297 831.733 620.297 829.6C620.297 827.6 620.697 825.773 621.497 824.12C622.324 822.467 623.497 821.16 625.017 820.2C626.537 819.213 628.324 818.72 630.377 818.72C631.55 818.72 632.577 818.827 633.457 819.04C634.364 819.253 635.23 819.56 636.057 819.96L634.977 823C634.23 822.627 633.51 822.36 632.817 822.2C632.15 822.013 631.404 821.92 630.577 821.92C628.71 821.92 627.137 822.6 625.857 823.96C624.604 825.293 623.977 827.147 623.977 829.52C623.977 830.96 624.244 832.267 624.777 833.44C625.31 834.613 626.044 835.547 626.977 836.24C627.937 836.933 629.057 837.28 630.337 837.28C631.35 837.28 632.217 837.173 632.937 836.96C633.657 836.72 634.43 836.387 635.257 835.96L636.377 839C635.55 839.453 634.617 839.813 633.577 840.08C632.564 840.347 631.404 840.48 630.097 840.48ZM628.937 849.76C628.217 849.76 627.524 849.693 626.857 849.56C626.19 849.427 625.55 849.227 624.937 848.96L625.897 846.44C626.777 846.893 627.737 847.12 628.777 847.12C629.47 847.12 630.044 847 630.497 846.76C630.95 846.52 631.177 846.147 631.177 845.64C631.177 845.16 630.857 844.733 630.217 844.36C629.604 843.987 628.417 843.8 626.657 843.8L628.057 840H630.777L629.937 842.36C631.27 842.36 632.35 842.653 633.177 843.24C634.004 843.853 634.417 844.747 634.417 845.92C634.417 846.907 633.964 847.787 633.057 848.56C632.15 849.36 630.777 849.76 628.937 849.76ZM647.333 840.48C645.6 840.48 644.027 840.04 642.613 839.16C641.2 838.28 640.067 837.04 639.213 835.44C638.387 833.813 637.973 831.907 637.973 829.72C637.973 827.64 638.387 825.773 639.213 824.12C640.067 822.467 641.227 821.16 642.693 820.2C644.187 819.213 645.893 818.72 647.813 818.72C649.013 818.72 650.093 818.933 651.053 819.36C652.04 819.76 652.893 820.267 653.613 820.88V819.2H656.893V834.96C656.893 835.973 657.133 836.64 657.613 836.96C658.12 837.253 658.667 837.4 659.253 837.4L658.493 840.2C655.933 840.2 654.387 839.16 653.853 837.08C653.24 837.933 652.4 838.72 651.333 839.44C650.293 840.133 648.96 840.48 647.333 840.48ZM648.133 837.28C649.147 837.28 650.107 837.04 651.013 836.56C651.92 836.053 652.68 835.427 653.293 834.68V823.52C652.573 823.013 651.773 822.613 650.893 822.32C650.04 822 649.133 821.84 648.173 821.84C646.893 821.84 645.76 822.173 644.773 822.84C643.813 823.48 643.053 824.387 642.493 825.56C641.933 826.707 641.653 828.053 641.653 829.6C641.653 831.093 641.933 832.427 642.493 833.6C643.053 834.747 643.827 835.653 644.813 836.32C645.8 836.96 646.907 837.28 648.133 837.28ZM643.453 815.68L642.053 813.2C642.533 812.667 643.147 812.187 643.893 811.76C644.64 811.333 645.413 811.12 646.213 811.12C646.88 811.12 647.453 811.24 647.933 811.48C648.413 811.693 648.867 811.92 649.293 812.16C649.747 812.373 650.253 812.48 650.813 812.48C651.4 812.48 651.92 812.36 652.373 812.12C652.827 811.853 653.227 811.56 653.573 811.24L654.973 813.76C654.493 814.213 653.933 814.64 653.293 815.04C652.68 815.413 651.96 815.6 651.133 815.6C650.44 815.6 649.853 815.493 649.373 815.28C648.893 815.04 648.427 814.813 647.973 814.6C647.52 814.36 646.987 814.24 646.373 814.24C645.787 814.24 645.253 814.387 644.773 814.68C644.293 814.973 643.853 815.307 643.453 815.68ZM671.63 840.48C669.657 840.48 667.884 840.027 666.31 839.12C664.737 838.187 663.497 836.907 662.59 835.28C661.71 833.627 661.27 831.733 661.27 829.6C661.27 827.36 661.724 825.427 662.63 823.8C663.537 822.173 664.777 820.92 666.35 820.04C667.924 819.16 669.684 818.72 671.63 818.72C673.577 818.72 675.324 819.16 676.87 820.04C678.444 820.92 679.684 822.173 680.59 823.8C681.524 825.4 681.99 827.307 681.99 829.52C681.99 831.733 681.537 833.667 680.63 835.32C679.724 836.947 678.484 838.213 676.91 839.12C675.364 840.027 673.604 840.48 671.63 840.48ZM671.63 837.28C673.737 837.28 675.377 836.573 676.55 835.16C677.724 833.72 678.31 831.867 678.31 829.6C678.31 828.213 678.017 826.947 677.43 825.8C676.844 824.627 676.044 823.693 675.03 823C674.044 822.28 672.91 821.92 671.63 821.92C669.524 821.92 667.884 822.613 666.71 824C665.537 825.387 664.95 827.227 664.95 829.52C664.95 830.907 665.244 832.2 665.83 833.4C666.417 834.573 667.204 835.52 668.19 836.24C669.204 836.933 670.35 837.28 671.63 837.28ZM689.417 831.72C689.283 831.267 689.177 830.773 689.097 830.24C689.043 829.707 689.017 829.213 689.017 828.76C689.017 827.4 689.27 826.267 689.777 825.36C690.283 824.427 690.91 823.627 691.657 822.96C692.403 822.267 693.15 821.627 693.897 821.04C694.643 820.453 695.27 819.827 695.777 819.16C696.283 818.467 696.537 817.653 696.537 816.72C696.537 815.787 696.177 814.973 695.457 814.28C694.737 813.56 693.763 813.2 692.537 813.2C691.443 813.2 690.457 813.467 689.577 814C688.697 814.533 687.897 815.267 687.177 816.2L684.577 814.12C685.643 812.813 686.83 811.787 688.137 811.04C689.443 810.293 691.017 809.92 692.857 809.92C694.35 809.92 695.657 810.213 696.777 810.8C697.923 811.387 698.817 812.173 699.457 813.16C700.097 814.147 700.417 815.24 700.417 816.44C700.417 817.8 700.15 818.933 699.617 819.84C699.083 820.747 698.43 821.547 697.657 822.24C696.883 822.907 696.097 823.573 695.297 824.24C694.523 824.88 693.87 825.613 693.337 826.44C692.803 827.24 692.537 828.253 692.537 829.48V831.72H689.417ZM691.177 840.48C690.457 840.48 689.83 840.213 689.297 839.68C688.763 839.147 688.497 838.52 688.497 837.8C688.497 836.973 688.737 836.32 689.217 835.84C689.697 835.36 690.35 835.12 691.177 835.12C691.87 835.12 692.483 835.387 693.017 835.92C693.577 836.453 693.857 837.08 693.857 837.8C693.857 838.6 693.603 839.253 693.097 839.76C692.59 840.24 691.95 840.48 691.177 840.48Z" fill="black"/>
<rect x="1084" y="876" width="151" height="48" rx="5" fill="#777777"/>
<path d="M1334.82 907.24C1333.61 907.24 1332.53 906.953 1331.6 906.38C1330.67 905.793 1329.94 904.967 1329.42 903.9C1328.9 902.82 1328.64 901.54 1328.64 900.06C1328.64 898.633 1328.9 897.373 1329.42 896.28C1329.95 895.173 1330.7 894.313 1331.66 893.7C1332.63 893.073 1333.77 892.76 1335.06 892.76C1335.73 892.76 1336.33 892.827 1336.88 892.96C1337.43 893.08 1337.94 893.253 1338.42 893.48L1337.84 895.08C1337.43 894.88 1337 894.72 1336.56 894.6C1336.13 894.48 1335.63 894.42 1335.04 894.42C1334.19 894.42 1333.42 894.64 1332.74 895.08C1332.07 895.52 1331.55 896.153 1331.16 896.98C1330.77 897.807 1330.58 898.807 1330.58 899.98C1330.58 901.1 1330.77 902.08 1331.14 902.92C1331.53 903.76 1332.05 904.413 1332.72 904.88C1333.4 905.347 1334.17 905.58 1335.04 905.58C1335.69 905.58 1336.26 905.5 1336.74 905.34C1337.22 905.18 1337.69 904.973 1338.14 904.72L1338.72 906.3C1338.23 906.567 1337.66 906.793 1337.02 906.98C1336.39 907.153 1335.66 907.24 1334.82 907.24ZM1344.09 907.24C1343.22 907.24 1342.44 907.02 1341.73 906.58C1341.02 906.14 1340.46 905.52 1340.03 904.72C1339.62 903.907 1339.41 902.953 1339.41 901.86C1339.41 900.82 1339.62 899.887 1340.03 899.06C1340.46 898.233 1341.04 897.58 1341.77 897.1C1342.52 896.607 1343.37 896.36 1344.33 896.36C1344.93 896.36 1345.47 896.467 1345.95 896.68C1346.44 896.88 1346.87 897.133 1347.23 897.44V896.6H1348.87V904.48C1348.87 904.987 1348.99 905.32 1349.23 905.48C1349.48 905.627 1349.76 905.7 1350.05 905.7L1349.67 907.1C1348.39 907.1 1347.62 906.58 1347.35 905.54C1347.04 905.967 1346.62 906.36 1346.09 906.72C1345.57 907.067 1344.9 907.24 1344.09 907.24ZM1344.49 905.64C1345 905.64 1345.48 905.52 1345.93 905.28C1346.38 905.027 1346.76 904.713 1347.07 904.34V898.76C1346.71 898.507 1346.31 898.307 1345.87 898.16C1345.44 898 1344.99 897.92 1344.51 897.92C1343.87 897.92 1343.3 898.087 1342.81 898.42C1342.33 898.74 1341.95 899.193 1341.67 899.78C1341.39 900.353 1341.25 901.027 1341.25 901.8C1341.25 902.547 1341.39 903.213 1341.67 903.8C1341.95 904.373 1342.34 904.827 1342.83 905.16C1343.32 905.48 1343.88 905.64 1344.49 905.64ZM1352.05 907V896.6H1353.79V898.34C1354.17 897.78 1354.64 897.313 1355.21 896.94C1355.8 896.553 1356.49 896.36 1357.29 896.36C1358.47 896.36 1359.34 896.713 1359.91 897.42C1360.5 898.127 1360.79 899.06 1360.79 900.22V907H1358.99V900.42C1358.99 899.673 1358.81 899.073 1358.45 898.62C1358.11 898.167 1357.62 897.94 1356.99 897.94C1356.38 897.94 1355.8 898.16 1355.25 898.6C1354.71 899.027 1354.24 899.533 1353.85 900.12V907H1352.05ZM1367.69 907.24C1366.7 907.24 1365.84 907.013 1365.09 906.56C1364.36 906.093 1363.79 905.453 1363.39 904.64C1362.99 903.813 1362.79 902.867 1362.79 901.8C1362.79 900.8 1362.99 899.887 1363.39 899.06C1363.8 898.233 1364.39 897.58 1365.15 897.1C1365.91 896.607 1366.8 896.36 1367.83 896.36C1368.42 896.36 1368.93 896.413 1369.37 896.52C1369.82 896.627 1370.26 896.78 1370.67 896.98L1370.13 898.5C1369.76 898.313 1369.4 898.18 1369.05 898.1C1368.72 898.007 1368.34 897.96 1367.93 897.96C1367 897.96 1366.21 898.3 1365.57 898.98C1364.94 899.647 1364.63 900.573 1364.63 901.76C1364.63 902.48 1364.76 903.133 1365.03 903.72C1365.3 904.307 1365.66 904.773 1366.13 905.12C1366.61 905.467 1367.17 905.64 1367.81 905.64C1368.32 905.64 1368.75 905.587 1369.11 905.48C1369.47 905.36 1369.86 905.193 1370.27 904.98L1370.83 906.5C1370.42 906.727 1369.95 906.907 1369.43 907.04C1368.92 907.173 1368.34 907.24 1367.69 907.24ZM1376.49 907.24C1374.99 907.24 1373.81 906.767 1372.93 905.82C1372.06 904.86 1371.63 903.52 1371.63 901.8C1371.63 900.76 1371.82 899.833 1372.21 899.02C1372.61 898.193 1373.16 897.547 1373.87 897.08C1374.57 896.6 1375.39 896.36 1376.33 896.36C1377.33 896.36 1378.15 896.58 1378.81 897.02C1379.47 897.447 1379.97 898.027 1380.31 898.76C1380.64 899.493 1380.81 900.3 1380.81 901.18C1380.81 901.647 1380.79 902.1 1380.75 902.54H1373.47C1373.59 903.513 1373.93 904.273 1374.49 904.82C1375.05 905.367 1375.79 905.64 1376.71 905.64C1377.31 905.64 1377.85 905.58 1378.33 905.46C1378.81 905.327 1379.27 905.16 1379.71 904.96L1380.13 906.5C1379.65 906.713 1379.11 906.887 1378.51 907.02C1377.91 907.167 1377.23 907.24 1376.49 907.24ZM1373.45 901.08H1379.15C1379.15 900.067 1378.89 899.287 1378.39 898.74C1377.88 898.193 1377.18 897.92 1376.29 897.92C1375.51 897.92 1374.87 898.193 1374.37 898.74C1373.86 899.273 1373.55 900.053 1373.45 901.08ZM1385.97 907.24C1385.35 907.24 1384.8 907.127 1384.31 906.9C1383.81 906.66 1383.42 906.28 1383.13 905.76C1382.85 905.24 1382.71 904.567 1382.71 903.74V892.2H1384.51V903.56C1384.51 904.28 1384.65 904.813 1384.95 905.16C1385.25 905.507 1385.67 905.68 1386.21 905.68C1386.46 905.68 1386.71 905.653 1386.95 905.6C1387.2 905.533 1387.41 905.46 1387.59 905.38L1388.03 906.84C1387.79 906.947 1387.49 907.04 1387.13 907.12C1386.78 907.2 1386.39 907.24 1385.97 907.24ZM1393.01 907.24C1392.14 907.24 1391.35 907.02 1390.65 906.58C1389.94 906.14 1389.37 905.52 1388.95 904.72C1388.53 903.907 1388.33 902.953 1388.33 901.86C1388.33 900.82 1388.53 899.887 1388.95 899.06C1389.37 898.233 1389.95 897.58 1390.69 897.1C1391.43 896.607 1392.29 896.36 1393.25 896.36C1393.85 896.36 1394.39 896.467 1394.87 896.68C1395.36 896.88 1395.79 897.133 1396.15 897.44V896.6H1397.79V904.48C1397.79 904.987 1397.91 905.32 1398.15 905.48C1398.4 905.627 1398.67 905.7 1398.97 905.7L1398.59 907.1C1397.31 907.1 1396.53 906.58 1396.27 905.54C1395.96 905.967 1395.54 906.36 1395.01 906.72C1394.49 907.067 1393.82 907.24 1393.01 907.24ZM1393.41 905.64C1393.91 905.64 1394.39 905.52 1394.85 905.28C1395.3 905.027 1395.68 904.713 1395.99 904.34V898.76C1395.63 898.507 1395.23 898.307 1394.79 898.16C1394.36 898 1393.91 897.92 1393.43 897.92C1392.79 897.92 1392.22 898.087 1391.73 898.42C1391.25 898.74 1390.87 899.193 1390.59 899.78C1390.31 900.353 1390.17 901.027 1390.17 901.8C1390.17 902.547 1390.31 903.213 1390.59 903.8C1390.87 904.373 1391.25 904.827 1391.75 905.16C1392.24 905.48 1392.79 905.64 1393.41 905.64ZM1400.97 907V896.6H1402.71V898.86C1402.88 898.42 1403.12 898.013 1403.41 897.64C1403.7 897.253 1404.07 896.947 1404.51 896.72C1404.95 896.48 1405.46 896.36 1406.05 896.36C1406.25 896.36 1406.45 896.373 1406.65 896.4C1406.85 896.413 1407.02 896.44 1407.15 896.48L1406.61 898.34C1406.36 898.233 1406.06 898.18 1405.71 898.18C1405.22 898.18 1404.74 898.32 1404.29 898.6C1403.85 898.88 1403.48 899.313 1403.19 899.9C1402.91 900.487 1402.77 901.233 1402.77 902.14V907H1400.97Z" fill="white"/>
<rect x="1285" y="876" width="151" height="48" rx="5" fill="#777777"/>
<path d="M1319.46 906.24C1318.25 906.24 1317.18 905.953 1316.24 905.38C1315.31 904.793 1314.58 903.967 1314.06 902.9C1313.54 901.82 1313.28 900.54 1313.28 899.06C1313.28 897.633 1313.54 896.373 1314.06 895.28C1314.6 894.173 1315.34 893.313 1316.3 892.7C1317.28 892.073 1318.41 891.76 1319.7 891.76C1320.37 891.76 1320.98 891.827 1321.52 891.96C1322.07 892.08 1322.58 892.253 1323.06 892.48L1322.48 894.08C1322.07 893.88 1321.64 893.72 1321.2 893.6C1320.78 893.48 1320.27 893.42 1319.68 893.42C1318.83 893.42 1318.06 893.64 1317.38 894.08C1316.72 894.52 1316.19 895.153 1315.8 895.98C1315.42 896.807 1315.22 897.807 1315.22 898.98C1315.22 900.1 1315.41 901.08 1315.78 901.92C1316.17 902.76 1316.7 903.413 1317.36 903.88C1318.04 904.347 1318.82 904.58 1319.68 904.58C1320.34 904.58 1320.9 904.5 1321.38 904.34C1321.86 904.18 1322.33 903.973 1322.78 903.72L1323.36 905.3C1322.87 905.567 1322.3 905.793 1321.66 905.98C1321.04 906.153 1320.3 906.24 1319.46 906.24ZM1329.13 906.24C1328.15 906.24 1327.26 906.013 1326.47 905.56C1325.69 905.093 1325.07 904.453 1324.61 903.64C1324.17 902.813 1323.95 901.867 1323.95 900.8C1323.95 899.68 1324.18 898.713 1324.63 897.9C1325.09 897.087 1325.71 896.46 1326.49 896.02C1327.28 895.58 1328.16 895.36 1329.13 895.36C1330.11 895.36 1330.98 895.58 1331.75 896.02C1332.54 896.46 1333.16 897.087 1333.61 897.9C1334.08 898.7 1334.31 899.653 1334.31 900.76C1334.31 901.867 1334.09 902.833 1333.63 903.66C1333.18 904.473 1332.56 905.107 1331.77 905.56C1331 906.013 1330.12 906.24 1329.13 906.24ZM1329.13 904.64C1330.19 904.64 1331.01 904.287 1331.59 903.58C1332.18 902.86 1332.47 901.933 1332.47 900.8C1332.47 900.107 1332.33 899.473 1332.03 898.9C1331.74 898.313 1331.34 897.847 1330.83 897.5C1330.34 897.14 1329.77 896.96 1329.13 896.96C1328.08 896.96 1327.26 897.307 1326.67 898C1326.09 898.693 1325.79 899.613 1325.79 900.76C1325.79 901.453 1325.94 902.1 1326.23 902.7C1326.53 903.287 1326.92 903.76 1327.41 904.12C1327.92 904.467 1328.49 904.64 1329.13 904.64ZM1336.31 906V895.6H1338.05V897.34C1338.42 896.78 1338.89 896.313 1339.47 895.94C1340.05 895.553 1340.75 895.36 1341.55 895.36C1342.72 895.36 1343.59 895.713 1344.17 896.42C1344.75 897.127 1345.05 898.06 1345.05 899.22V906H1343.25V899.42C1343.25 898.673 1343.07 898.073 1342.71 897.62C1342.36 897.167 1341.87 896.94 1341.25 896.94C1340.63 896.94 1340.05 897.16 1339.51 897.6C1338.96 898.027 1338.49 898.533 1338.11 899.12V906H1336.31ZM1347.94 906V897.54H1346.34V895.98H1347.94V894.76C1347.94 893.587 1348.27 892.66 1348.92 891.98C1349.58 891.3 1350.43 890.96 1351.48 890.96C1352.03 890.96 1352.51 891.027 1352.92 891.16C1353.34 891.28 1353.73 891.433 1354.1 891.62L1353.56 893.14C1353.28 892.993 1352.98 892.86 1352.66 892.74C1352.34 892.62 1351.99 892.56 1351.6 892.56C1351.04 892.56 1350.59 892.74 1350.24 893.1C1349.91 893.447 1349.74 893.96 1349.74 894.64V895.98H1352.82V897.54H1349.74V906H1347.94ZM1354.3 906V895.6H1356.1V906H1354.3ZM1355.2 893.82C1354.85 893.82 1354.55 893.693 1354.3 893.44C1354.06 893.187 1353.94 892.893 1353.94 892.56C1353.94 892.173 1354.05 891.867 1354.28 891.64C1354.5 891.413 1354.81 891.3 1355.2 891.3C1355.54 891.3 1355.84 891.427 1356.08 891.68C1356.33 891.92 1356.46 892.213 1356.46 892.56C1356.46 892.933 1356.34 893.24 1356.12 893.48C1355.89 893.707 1355.58 893.82 1355.2 893.82ZM1358.9 906V895.6H1360.64V897.86C1360.81 897.42 1361.04 897.013 1361.34 896.64C1361.63 896.253 1362 895.947 1362.44 895.72C1362.88 895.48 1363.39 895.36 1363.98 895.36C1364.18 895.36 1364.38 895.373 1364.58 895.4C1364.78 895.413 1364.94 895.44 1365.08 895.48L1364.54 897.34C1364.28 897.233 1363.98 897.18 1363.64 897.18C1363.14 897.18 1362.67 897.32 1362.22 897.6C1361.78 897.88 1361.41 898.313 1361.12 898.9C1360.84 899.487 1360.7 900.233 1360.7 901.14V906H1358.9ZM1366.48 906V895.6H1368.22V897.34C1368.6 896.78 1369.07 896.313 1369.64 895.94C1370.22 895.553 1370.87 895.36 1371.6 895.36C1372.43 895.36 1373.1 895.56 1373.62 895.96C1374.16 896.36 1374.53 896.893 1374.74 897.56C1375.16 896.947 1375.64 896.427 1376.2 896C1376.78 895.573 1377.48 895.36 1378.32 895.36C1379.46 895.36 1380.3 895.72 1380.84 896.44C1381.4 897.147 1381.68 898.073 1381.68 899.22V906H1379.88V899.36C1379.88 898.64 1379.72 898.06 1379.38 897.62C1379.05 897.167 1378.59 896.94 1378 896.94C1377.4 896.94 1376.84 897.167 1376.32 897.62C1375.82 898.06 1375.37 898.58 1374.98 899.18V906H1373.18V899.36C1373.18 898.64 1373.02 898.06 1372.68 897.62C1372.35 897.167 1371.89 896.94 1371.3 896.94C1370.72 896.94 1370.16 897.16 1369.64 897.6C1369.12 898.027 1368.67 898.533 1368.28 899.12V906H1366.48ZM1388.36 906.24C1387.5 906.24 1386.71 906.02 1386 905.58C1385.3 905.14 1384.73 904.52 1384.3 903.72C1383.89 902.907 1383.68 901.953 1383.68 900.86C1383.68 899.82 1383.89 898.887 1384.3 898.06C1384.73 897.233 1385.31 896.58 1386.04 896.1C1386.79 895.607 1387.64 895.36 1388.6 895.36C1389.2 895.36 1389.74 895.467 1390.22 895.68C1390.72 895.88 1391.14 896.133 1391.5 896.44V895.6H1393.14V903.48C1393.14 903.987 1393.26 904.32 1393.5 904.48C1393.76 904.627 1394.03 904.7 1394.32 904.7L1393.94 906.1C1392.66 906.1 1391.89 905.58 1391.62 904.54C1391.32 904.967 1390.9 905.36 1390.36 905.72C1389.84 906.067 1389.18 906.24 1388.36 906.24ZM1388.76 904.64C1389.27 904.64 1389.75 904.52 1390.2 904.28C1390.66 904.027 1391.04 903.713 1391.34 903.34V897.76C1390.98 897.507 1390.58 897.307 1390.14 897.16C1389.72 897 1389.26 896.92 1388.78 896.92C1388.14 896.92 1387.58 897.087 1387.08 897.42C1386.6 897.74 1386.22 898.193 1385.94 898.78C1385.66 899.353 1385.52 900.027 1385.52 900.8C1385.52 901.547 1385.66 902.213 1385.94 902.8C1386.22 903.373 1386.61 903.827 1387.1 904.16C1387.6 904.48 1388.15 904.64 1388.76 904.64ZM1396.33 906V895.6H1398.07V897.86C1398.24 897.42 1398.47 897.013 1398.77 896.64C1399.06 896.253 1399.43 895.947 1399.87 895.72C1400.31 895.48 1400.82 895.36 1401.41 895.36C1401.61 895.36 1401.81 895.373 1402.01 895.4C1402.21 895.413 1402.37 895.44 1402.51 895.48L1401.97 897.34C1401.71 897.233 1401.41 897.18 1401.07 897.18C1400.57 897.18 1400.1 897.32 1399.65 897.6C1399.21 897.88 1398.84 898.313 1398.55 898.9C1398.27 899.487 1398.13 900.233 1398.13 901.14V906H1396.33Z" fill="white"/>
<path d="M1128.82 907.24C1127.61 907.24 1126.53 906.953 1125.6 906.38C1124.67 905.793 1123.94 904.967 1123.42 903.9C1122.9 902.82 1122.64 901.54 1122.64 900.06C1122.64 898.633 1122.9 897.373 1123.42 896.28C1123.95 895.173 1124.7 894.313 1125.66 893.7C1126.63 893.073 1127.77 892.76 1129.06 892.76C1129.73 892.76 1130.33 892.827 1130.88 892.96C1131.43 893.08 1131.94 893.253 1132.42 893.48L1131.84 895.08C1131.43 894.88 1131 894.72 1130.56 894.6C1130.13 894.48 1129.63 894.42 1129.04 894.42C1128.19 894.42 1127.42 894.64 1126.74 895.08C1126.07 895.52 1125.55 896.153 1125.16 896.98C1124.77 897.807 1124.58 898.807 1124.58 899.98C1124.58 901.1 1124.77 902.08 1125.14 902.92C1125.53 903.76 1126.05 904.413 1126.72 904.88C1127.4 905.347 1128.17 905.58 1129.04 905.58C1129.69 905.58 1130.26 905.5 1130.74 905.34C1131.22 905.18 1131.69 904.973 1132.14 904.72L1132.72 906.3C1132.23 906.567 1131.66 906.793 1131.02 906.98C1130.39 907.153 1129.66 907.24 1128.82 907.24ZM1138.09 907.24C1137.22 907.24 1136.44 907.02 1135.73 906.58C1135.02 906.14 1134.46 905.52 1134.03 904.72C1133.62 903.907 1133.41 902.953 1133.41 901.86C1133.41 900.82 1133.62 899.887 1134.03 899.06C1134.46 898.233 1135.04 897.58 1135.77 897.1C1136.52 896.607 1137.37 896.36 1138.33 896.36C1138.93 896.36 1139.47 896.467 1139.95 896.68C1140.44 896.88 1140.87 897.133 1141.23 897.44V896.6H1142.87V904.48C1142.87 904.987 1142.99 905.32 1143.23 905.48C1143.48 905.627 1143.76 905.7 1144.05 905.7L1143.67 907.1C1142.39 907.1 1141.62 906.58 1141.35 905.54C1141.04 905.967 1140.62 906.36 1140.09 906.72C1139.57 907.067 1138.9 907.24 1138.09 907.24ZM1138.49 905.64C1139 905.64 1139.48 905.52 1139.93 905.28C1140.38 905.027 1140.76 904.713 1141.07 904.34V898.76C1140.71 898.507 1140.31 898.307 1139.87 898.16C1139.44 898 1138.99 897.92 1138.51 897.92C1137.87 897.92 1137.3 898.087 1136.81 898.42C1136.33 898.74 1135.95 899.193 1135.67 899.78C1135.39 900.353 1135.25 901.027 1135.25 901.8C1135.25 902.547 1135.39 903.213 1135.67 903.8C1135.95 904.373 1136.34 904.827 1136.83 905.16C1137.32 905.48 1137.88 905.64 1138.49 905.64ZM1146.05 907V896.6H1147.79V898.34C1148.17 897.78 1148.64 897.313 1149.21 896.94C1149.8 896.553 1150.49 896.36 1151.29 896.36C1152.47 896.36 1153.34 896.713 1153.91 897.42C1154.5 898.127 1154.79 899.06 1154.79 900.22V907H1152.99V900.42C1152.99 899.673 1152.81 899.073 1152.45 898.62C1152.11 898.167 1151.62 897.94 1150.99 897.94C1150.38 897.94 1149.8 898.16 1149.25 898.6C1148.71 899.027 1148.24 899.533 1147.85 900.12V907H1146.05ZM1161.69 907.24C1160.7 907.24 1159.84 907.013 1159.09 906.56C1158.36 906.093 1157.79 905.453 1157.39 904.64C1156.99 903.813 1156.79 902.867 1156.79 901.8C1156.79 900.8 1156.99 899.887 1157.39 899.06C1157.8 898.233 1158.39 897.58 1159.15 897.1C1159.91 896.607 1160.8 896.36 1161.83 896.36C1162.42 896.36 1162.93 896.413 1163.37 896.52C1163.82 896.627 1164.26 896.78 1164.67 896.98L1164.13 898.5C1163.76 898.313 1163.4 898.18 1163.05 898.1C1162.72 898.007 1162.34 897.96 1161.93 897.96C1161 897.96 1160.21 898.3 1159.57 898.98C1158.94 899.647 1158.63 900.573 1158.63 901.76C1158.63 902.48 1158.76 903.133 1159.03 903.72C1159.3 904.307 1159.66 904.773 1160.13 905.12C1160.61 905.467 1161.17 905.64 1161.81 905.64C1162.32 905.64 1162.75 905.587 1163.11 905.48C1163.47 905.36 1163.86 905.193 1164.27 904.98L1164.83 906.5C1164.42 906.727 1163.95 906.907 1163.43 907.04C1162.92 907.173 1162.34 907.24 1161.69 907.24ZM1170.49 907.24C1168.99 907.24 1167.81 906.767 1166.93 905.82C1166.06 904.86 1165.63 903.52 1165.63 901.8C1165.63 900.76 1165.82 899.833 1166.21 899.02C1166.61 898.193 1167.16 897.547 1167.87 897.08C1168.57 896.6 1169.39 896.36 1170.33 896.36C1171.33 896.36 1172.15 896.58 1172.81 897.02C1173.47 897.447 1173.97 898.027 1174.31 898.76C1174.64 899.493 1174.81 900.3 1174.81 901.18C1174.81 901.647 1174.79 902.1 1174.75 902.54H1167.47C1167.59 903.513 1167.93 904.273 1168.49 904.82C1169.05 905.367 1169.79 905.64 1170.71 905.64C1171.31 905.64 1171.85 905.58 1172.33 905.46C1172.81 905.327 1173.27 905.16 1173.71 904.96L1174.13 906.5C1173.65 906.713 1173.11 906.887 1172.51 907.02C1171.91 907.167 1171.23 907.24 1170.49 907.24ZM1167.45 901.08H1173.15C1173.15 900.067 1172.89 899.287 1172.39 898.74C1171.88 898.193 1171.18 897.92 1170.29 897.92C1169.51 897.92 1168.87 898.193 1168.37 898.74C1167.86 899.273 1167.55 900.053 1167.45 901.08ZM1179.97 907.24C1179.35 907.24 1178.8 907.127 1178.31 906.9C1177.81 906.66 1177.42 906.28 1177.13 905.76C1176.85 905.24 1176.71 904.567 1176.71 903.74V892.2H1178.51V903.56C1178.51 904.28 1178.65 904.813 1178.95 905.16C1179.25 905.507 1179.67 905.68 1180.21 905.68C1180.46 905.68 1180.71 905.653 1180.95 905.6C1181.2 905.533 1181.41 905.46 1181.59 905.38L1182.03 906.84C1181.79 906.947 1181.49 907.04 1181.13 907.12C1180.78 907.2 1180.39 907.24 1179.97 907.24ZM1187.01 907.24C1186.14 907.24 1185.35 907.02 1184.65 906.58C1183.94 906.14 1183.37 905.52 1182.95 904.72C1182.53 903.907 1182.33 902.953 1182.33 901.86C1182.33 900.82 1182.53 899.887 1182.95 899.06C1183.37 898.233 1183.95 897.58 1184.69 897.1C1185.43 896.607 1186.29 896.36 1187.25 896.36C1187.85 896.36 1188.39 896.467 1188.87 896.68C1189.36 896.88 1189.79 897.133 1190.15 897.44V896.6H1191.79V904.48C1191.79 904.987 1191.91 905.32 1192.15 905.48C1192.4 905.627 1192.67 905.7 1192.97 905.7L1192.59 907.1C1191.31 907.1 1190.53 906.58 1190.27 905.54C1189.96 905.967 1189.54 906.36 1189.01 906.72C1188.49 907.067 1187.82 907.24 1187.01 907.24ZM1187.41 905.64C1187.91 905.64 1188.39 905.52 1188.85 905.28C1189.3 905.027 1189.68 904.713 1189.99 904.34V898.76C1189.63 898.507 1189.23 898.307 1188.79 898.16C1188.36 898 1187.91 897.92 1187.43 897.92C1186.79 897.92 1186.22 898.087 1185.73 898.42C1185.25 898.74 1184.87 899.193 1184.59 899.78C1184.31 900.353 1184.17 901.027 1184.17 901.8C1184.17 902.547 1184.31 903.213 1184.59 903.8C1184.87 904.373 1185.25 904.827 1185.75 905.16C1186.24 905.48 1186.79 905.64 1187.41 905.64ZM1194.97 907V896.6H1196.71V898.86C1196.88 898.42 1197.12 898.013 1197.41 897.64C1197.7 897.253 1198.07 896.947 1198.51 896.72C1198.95 896.48 1199.46 896.36 1200.05 896.36C1200.25 896.36 1200.45 896.373 1200.65 896.4C1200.85 896.413 1201.02 896.44 1201.15 896.48L1200.61 898.34C1200.36 898.233 1200.06 898.18 1199.71 898.18C1199.22 898.18 1198.74 898.32 1198.29 898.6C1197.85 898.88 1197.48 899.313 1197.19 899.9C1196.91 900.487 1196.77 901.233 1196.77 902.14V907H1194.97Z" fill="white"/>
<circle cx="1436" cy="677" r="20" fill="#D9D9D9"/>
<path d="M1441.41 687.25L1435.88 679.75L1430.53 687.2L1428.66 685.775L1434.53 678.1L1428.91 670.75L1430.88 669.275L1435.96 676.375L1440.98 669.35L1442.83 670.75L1437.38 677.975L1443.33 685.775L1441.41 687.25Z" fill="black"/>
</svg>
